<?xml version="1.0" encoding="UTF-8"?>
<svg version="1.1" xmlns="http://www.w3.org/2000/svg" width="180" height="180">
<path d="M0 0 C59.4 0 118.8 0 180 0 C180 59.4 180 118.8 180 180 C120.6 180 61.2 180 0 180 C0 120.6 0 61.2 0 0 Z " fill="#FDFDFC" transform="translate(0,0)"/>
<path d="M0 0 C3 1.5625 3 1.5625 5 4 C5.3125 7.75 5.3125 7.75 5 11 C2.69 11 0.38 11 -2 11 C-2.33 9.68 -2.66 8.36 -3 7 C-3.66 7 -4.32 7 -5 7 C-5.83953267 10.19904988 -5.83953267 10.19904988 -5 14 C-2.73001027 15.57623945 -2.73001027 15.57623945 0 17 C2.76171875 18.70703125 2.76171875 18.70703125 5 21 C6.22373967 26.783257 6.70849829 33.29308457 3.44921875 38.45703125 C2.73185547 39.22080078 2.73185547 39.22080078 2 40 C4.64 40.33 7.28 40.66 10 41 C10 27.8 10 14.6 10 1 C12.31 1 14.62 1 17 1 C18.32 6.28 19.64 11.56 21 17 C22.79605308 11.69347953 24.50660362 6.3992023 26 1 C28.64 1 31.28 1 34 1 C34 13.87 34 26.74 34 40 C47.365 40.495 47.365 40.495 61 41 C61 27.8 61 14.6 61 1 C74.85714286 1 74.85714286 1 80.8125 6.75 C81.4003125 7.36875 81.4003125 7.36875 82 8 C82 5.69 82 3.38 82 1 C87.61 1 93.22 1 99 1 C99 2.98 99 4.96 99 7 C97.35 7 95.7 7 94 7 C94 18.22 94 29.44 94 41 C95.98 41 97.96 41 100 41 C107.58991684 52.38487526 102 68.31708283 102 82 C64.05 82 26.1 82 -13 82 C-14.20061105 78.39816685 -14.02185426 75.22311412 -13.87890625 71.48828125 C-13.85529526 70.76005661 -13.83168427 70.03183197 -13.80735779 69.28153992 C-13.7308565 66.9583216 -13.6467744 64.63544807 -13.5625 62.3125 C-13.50926573 60.73634493 -13.45652542 59.16017309 -13.40429688 57.58398438 C-13.27525978 53.7224384 -13.13942375 49.86118434 -13 46 C-10.55078125 46.8671875 -10.55078125 46.8671875 -8 48 C-7.1875 50.125 -7.1875 50.125 -7 52 C-5.68 52.33 -4.36 52.66 -3 53 C-3 60.92 -3 68.84 -3 77 C-0.69 77 1.62 77 4 77 C4 69.08 4 61.16 4 53 C5.32 53 6.64 53 8 53 C8 51.35 8 49.7 8 48 C9.32 48.33 10.64 48.66 12 49 C12 58.24 12 67.48 12 77 C13.98 77 15.96 77 18 77 C18 67.43 18 57.86 18 48 C20.97 48.495 20.97 48.495 24 49 C23.99476318 49.78238037 23.98952637 50.56476074 23.98413086 51.37084961 C23.96342894 54.89305833 23.95036162 58.4152543 23.9375 61.9375 C23.92493164 63.78504883 23.92493164 63.78504883 23.91210938 65.66992188 C23.90888672 66.83974609 23.90566406 68.00957031 23.90234375 69.21484375 C23.89710693 70.29886475 23.89187012 71.38288574 23.88647461 72.49975586 C23.71573103 74.94049948 23.71573103 74.94049948 25 76 C26.83115883 76.09851171 28.66619933 76.12972629 30.5 76.125 C32.00046875 76.12886719 32.00046875 76.12886719 33.53125 76.1328125 C35.94399622 76.27870382 35.94399622 76.27870382 37 75 C37.23192865 73.48530552 37.41215238 71.96245438 37.5625 70.4375 C37.64628906 69.61121094 37.73007813 68.78492188 37.81640625 67.93359375 C37.87699219 67.29550781 37.93757813 66.65742188 38 66 C36.02 66 34.04 66 32 66 C32 68.31 32 70.62 32 73 C31.01 73 30.02 73 29 73 C29 66.07 29 59.14 29 52 C29.99 52 30.98 52 32 52 C32 53.98 32 55.96 32 58 C34.97 57.505 34.97 57.505 38 57 C37.54177532 53.53058454 37.10868317 50.32604951 36 47 C32.37 47 28.74 47 25 47 C25 46.34 25 45.68 25 45 C24.34 44.34 23.68 43.68 23 43 C34.55 43 46.1 43 58 43 C58 43.99 58 44.98 58 46 C56.35 46 54.7 46 53 46 C52.896875 46.53625 52.79375 47.0725 52.6875 47.625 C51.81907303 50.62502044 50.44379704 53.2379535 49 56 C48.67 56 48.34 56 48 56 C48 53.03 48 50.06 48 47 C46.02 47 44.04 47 42 47 C42 56.9 42 66.8 42 77 C43.98 77 45.96 77 48 77 C48 74.03 48 71.06 48 68 C48.66 68 49.32 68 50 68 C50.99 72.455 50.99 72.455 52 77 C54.31 77 56.62 77 59 77 C58.55527344 75.97519531 58.11054687 74.95039063 57.65234375 73.89453125 C57.08004243 72.53414287 56.50846577 71.17344946 55.9375 69.8125 C55.64294922 69.13896484 55.34839844 68.46542969 55.04492188 67.77148438 C53.388518 63.77662797 52.44386435 61.11264421 54 57 C55.41015625 54.54296875 55.41015625 54.54296875 57.0625 52.1875 C57.61035156 51.39730469 58.15820312 50.60710937 58.72265625 49.79296875 C59.14417969 49.20128906 59.56570312 48.60960937 60 48 C61.485 48.495 61.485 48.495 63 49 C63 58.24 63 67.48 63 77 C67.29 77 71.58 77 76 77 C76 75.68 76 74.36 76 73 C74.02 73 72.04 73 70 73 C70 69.7 70 66.4 70 63 C71.65 63 73.3 63 75 63 C75 61.68 75 60.36 75 59 C73.02 59 71.04 59 69 59 C69 56.69 69 54.38 69 52 C71.64 52 74.28 52 77 52 C77 50.68 77 49.36 77 48 C77.66 48 78.32 48 79 48 C79.495 49.98 79.495 49.98 80 52 C81.98 52.495 81.98 52.495 84 53 C84 60.92 84 68.84 84 77 C86.31 77.33 88.62 77.66 91 78 C91 69.75 91 61.5 91 53 C92.32 53 93.64 53 95 53 C95 51.02 95 49.04 95 47 C91.7 47 88.4 47 85 47 C85.495 46.01 85.495 46.01 86 45 C79.07 44.67 72.14 44.34 65 44 C65 43.67 65 43.34 65 43 C39.59 42.67 14.18 42.34 -12 42 C-11.01 41.34 -10.02 40.68 -9 40 C-9.66 39.525625 -10.32 39.05125 -11 38.5625 C-13.60827282 35.22065045 -13.36630189 33.04265561 -13.23828125 28.92578125 C-13 27 -13 27 -12 26 C-10.00041636 25.95919217 -7.99954746 25.95745644 -6 26 C-6 28.64 -6 31.28 -6 34 C-4.68 34 -3.36 34 -2 34 C-1.82305039 30.48224185 -1.97241557 27.38267026 -3 24 C-5.67772273 21.12183354 -8.68485629 19.08471537 -12 17 C-13.71944301 15.28055699 -13.29345984 13.09584777 -13.375 10.75 C-13.32295249 6.74754652 -13.17879132 5.28494866 -11 1.8125 C-7.14469202 -0.51674857 -4.39117234 -0.93843602 0 0 Z " fill="#F8F8F8" transform="translate(43,98)"/>
<path d="M0 0 C5.11666543 1.49133083 8.54148493 5.37391016 11.42578125 9.70703125 C12.14935584 12.76714877 11.94288277 14.54696643 11.42578125 17.70703125 C12.53953125 17.64515625 13.65328125 17.58328125 14.80078125 17.51953125 C20.70598263 18.19561871 23.71332124 22.70453881 27.421875 26.9453125 C30.1396217 30.69082305 30.1396217 30.69082305 30.42578125 33.70703125 C29.28588867 35.44628906 29.28588867 35.44628906 27.53125 37.16015625 C26.59249023 38.08828125 26.59249023 38.08828125 25.63476562 39.03515625 C24.96767578 39.669375 24.30058594 40.30359375 23.61328125 40.95703125 C22.63004883 41.9315625 22.63004883 41.9315625 21.62695312 42.92578125 C16.72014509 47.70703125 16.72014509 47.70703125 14.42578125 47.70703125 C14.42578125 48.36703125 14.42578125 49.02703125 14.42578125 49.70703125 C13.64203125 49.95453125 12.85828125 50.20203125 12.05078125 50.45703125 C9.34337073 51.40216793 9.34337073 51.40216793 8.63671875 53.42578125 C6.87624775 56.74228146 4.18303194 58.9794074 1.42578125 61.45703125 C0.87921875 61.96363281 0.33265625 62.47023437 -0.23046875 62.9921875 C-4.31579557 66.70703125 -4.31579557 66.70703125 -6.57421875 66.70703125 C-6.57421875 67.36703125 -6.57421875 68.02703125 -6.57421875 68.70703125 C-8.0078125 70.15234375 -8.0078125 70.15234375 -10.01171875 71.83203125 C-13.16816656 74.49409567 -16.27734351 77.20138345 -19.359375 79.94921875 C-20.15351807 80.65675293 -20.94766113 81.36428711 -21.76586914 82.09326172 C-22.6610022 82.89207764 -22.6610022 82.89207764 -23.57421875 83.70703125 C-22.83896973 83.72685059 -22.1037207 83.74666992 -21.34619141 83.76708984 C-17.96355248 83.86328115 -14.58145338 83.97257382 -11.19921875 84.08203125 C-10.04292969 84.11296875 -8.88664062 84.14390625 -7.6953125 84.17578125 C-0.79383839 84.40972952 5.71061732 85.07382047 12.42578125 86.70703125 C12.42578125 87.36703125 12.42578125 88.02703125 12.42578125 88.70703125 C5.17559021 92.33212677 -6.02017374 90.86668193 -13.98828125 90.875 C-15.12397552 90.8783284 -16.2596698 90.8816568 -17.42977905 90.88508606 C-19.81125488 90.89011105 -22.19273763 90.89249577 -24.57421875 90.89233398 C-28.19673253 90.89452974 -31.81894576 90.91275832 -35.44140625 90.93164062 C-37.76953022 90.93457373 -40.09765562 90.93655908 -42.42578125 90.9375 C-43.49583405 90.94468552 -44.56588684 90.95187103 -45.66836548 90.95927429 C-52.20168965 90.9395989 -58.22420472 90.2559239 -64.57421875 88.70703125 C-64.57421875 88.04703125 -64.57421875 87.38703125 -64.57421875 86.70703125 C-54.67421875 85.71703125 -44.77421875 84.72703125 -34.57421875 83.70703125 C-37.21421875 80.73703125 -39.85421875 77.76703125 -42.57421875 74.70703125 C-43.07421875 70.64453125 -43.07421875 70.64453125 -42.57421875 67.70703125 C-43.14269531 67.57167969 -43.71117188 67.43632813 -44.296875 67.296875 C-51.96900472 65.1579006 -55.88003111 61.21763939 -60.63671875 55.01953125 C-61.57421875 52.70703125 -61.57421875 52.70703125 -60.8515625 50.796875 C-59.46684782 48.53136322 -57.95819781 46.82504439 -56.07421875 44.95703125 C-55.46578125 44.3434375 -54.85734375 43.72984375 -54.23046875 43.09765625 C-52.57421875 41.70703125 -52.57421875 41.70703125 -50.57421875 41.70703125 C-50.57421875 41.04703125 -50.57421875 40.38703125 -50.57421875 39.70703125 C-48.78125 38.15625 -48.78125 38.15625 -46.38671875 36.39453125 C-42.82622391 33.70055309 -39.65554326 30.95053074 -36.57421875 27.70703125 C-32.45491983 23.4752949 -28.22749717 19.45720604 -23.75390625 15.6015625 C-20.44560855 12.72607077 -17.21130532 9.76951871 -13.96875 6.8203125 C-5.9355528 -0.26934441 -5.9355528 -0.26934441 0 0 Z " fill="#EED24D" transform="translate(111.57421875,-0.70703125)"/>
<path d="M0 0 C11.55 0 23.1 0 35 0 C35 0.99 35 1.98 35 3 C33.35 3 31.7 3 30 3 C29.896875 3.53625 29.79375 4.0725 29.6875 4.625 C28.81907303 7.62502044 27.44379704 10.2379535 26 13 C25.67 13 25.34 13 25 13 C25 10.03 25 7.06 25 4 C23.02 4 21.04 4 19 4 C19 13.9 19 23.8 19 34 C20.98 34 22.96 34 25 34 C25 31.03 25 28.06 25 25 C25.66 25 26.32 25 27 25 C27.99 29.455 27.99 29.455 29 34 C31.31 34 33.62 34 36 34 C35.55527344 32.97519531 35.11054687 31.95039063 34.65234375 30.89453125 C34.08004243 29.53414287 33.50846577 28.17344946 32.9375 26.8125 C32.64294922 26.13896484 32.34839844 25.46542969 32.04492188 24.77148438 C30.388518 20.77662797 29.44386435 18.11264421 31 14 C32.41015625 11.54296875 32.41015625 11.54296875 34.0625 9.1875 C34.88427734 8.00220703 34.88427734 8.00220703 35.72265625 6.79296875 C36.14417969 6.20128906 36.56570312 5.60960937 37 5 C37.99 5.33 38.98 5.66 40 6 C40 15.24 40 24.48 40 34 C44.29 34 48.58 34 53 34 C53 32.68 53 31.36 53 30 C51.02 30 49.04 30 47 30 C47 26.7 47 23.4 47 20 C48.65 20 50.3 20 52 20 C52 18.68 52 17.36 52 16 C50.02 16 48.04 16 46 16 C46 13.69 46 11.38 46 9 C48.64 9 51.28 9 54 9 C54 7.68 54 6.36 54 5 C54.66 5 55.32 5 56 5 C56.495 6.98 56.495 6.98 57 9 C58.32 9.33 59.64 9.66 61 10 C61 17.92 61 25.84 61 34 C63.31 34.33 65.62 34.66 68 35 C68 26.75 68 18.5 68 10 C69.32 10 70.64 10 72 10 C72 8.02 72 6.04 72 4 C68.7 4 65.4 4 62 4 C62.33 3.34 62.66 2.68 63 2 C56.07 1.67 49.14 1.34 42 1 C42 0.67 42 0.34 42 0 C46.94791294 -0.0246826 51.8957902 -0.04285166 56.84375 -0.05493164 C58.52767562 -0.05996653 60.21159686 -0.06679481 61.89550781 -0.07543945 C64.31316203 -0.08754196 66.73075856 -0.09323668 69.1484375 -0.09765625 C69.9036972 -0.10281754 70.65895691 -0.10797882 71.43710327 -0.11329651 C76.77225659 -0.11387171 76.77225659 -0.11387171 79 1 C79 13.54 79 26.08 79 39 C41.05 39 3.1 39 -36 39 C-37.20061105 35.39816685 -37.02185426 32.22311412 -36.87890625 28.48828125 C-36.85529526 27.76005661 -36.83168427 27.03183197 -36.80735779 26.28153992 C-36.7308565 23.9583216 -36.6467744 21.63544807 -36.5625 19.3125 C-36.50926573 17.73634493 -36.45652542 16.16017309 -36.40429688 14.58398438 C-36.27525978 10.7224384 -36.13942375 6.86118434 -36 3 C-33.55078125 3.8671875 -33.55078125 3.8671875 -31 5 C-30.1875 7.125 -30.1875 7.125 -30 9 C-28.68 9.33 -27.36 9.66 -26 10 C-26 17.92 -26 25.84 -26 34 C-23.69 34 -21.38 34 -19 34 C-19 26.08 -19 18.16 -19 10 C-17.68 10 -16.36 10 -15 10 C-15 8.35 -15 6.7 -15 5 C-13.68 5.33 -12.36 5.66 -11 6 C-11 15.24 -11 24.48 -11 34 C-9.02 34 -7.04 34 -5 34 C-5 24.43 -5 14.86 -5 5 C-3.02 5.33 -1.04 5.66 1 6 C0.99476318 6.78238037 0.98952637 7.56476074 0.98413086 8.37084961 C0.96342894 11.89305833 0.95036162 15.4152543 0.9375 18.9375 C0.92493164 20.78504883 0.92493164 20.78504883 0.91210938 22.66992188 C0.90888672 23.83974609 0.90566406 25.00957031 0.90234375 26.21484375 C0.89710693 27.29886475 0.89187012 28.38288574 0.88647461 29.49975586 C0.71573103 31.94049948 0.71573103 31.94049948 2 33 C3.83115883 33.09851171 5.66619933 33.12972629 7.5 33.125 C9.00046875 33.12886719 9.00046875 33.12886719 10.53125 33.1328125 C12.94399622 33.27870382 12.94399622 33.27870382 14 32 C14.23192865 30.48530552 14.41215238 28.96245438 14.5625 27.4375 C14.64628906 26.61121094 14.73007813 25.78492188 14.81640625 24.93359375 C14.90728516 23.97646484 14.90728516 23.97646484 15 23 C13.02 23 11.04 23 9 23 C9 25.31 9 27.62 9 30 C8.01 30 7.02 30 6 30 C6 23.07 6 16.14 6 9 C6.99 9 7.98 9 9 9 C9 10.98 9 12.96 9 15 C10.98 14.67 12.96 14.34 15 14 C14.54177532 10.53058454 14.10868317 7.32604951 13 4 C9.37 4 5.74 4 2 4 C2 3.34 2 2.68 2 2 C1.34 1.34 0.68 0.68 0 0 Z " fill="#F2D55A" transform="translate(66,141)"/>
<path d="M0 0 C0.82408293 0.00184359 1.64816586 0.00368717 2.49722099 0.00558662 C3.44235558 0.0028373 4.38749016 0.00008797 5.36126518 -0.00274467 C6.92140343 0.00804115 6.92140343 0.00804115 8.51305962 0.01904488 C9.60575157 0.01875282 10.69844353 0.01846077 11.82424736 0.01815987 C15.44960175 0.01955741 19.07475268 0.03513867 22.70007133 0.05078316 C25.20827942 0.05451178 27.71648896 0.05735946 30.22469902 0.0593586 C36.1603817 0.06622447 42.09599868 0.08200038 48.03164756 0.10205758 C55.45105702 0.12658552 62.87047549 0.13734305 70.28991508 0.14843941 C83.5282337 0.16991051 96.76649162 0.20367826 110.00475883 0.24609566 C110.00475883 0.57609566 110.00475883 0.90609566 110.00475883 1.24609566 C109.1501104 1.29508003 108.29546196 1.34406441 107.41491508 1.39453316 C106.31018852 1.46929878 105.20546196 1.54406441 104.06725883 1.62109566 C102.9651104 1.69070503 101.86296196 1.76031441 100.72741508 1.83203316 C99.82893852 1.96867378 98.93046196 2.10531441 98.00475883 2.24609566 C97.67475883 2.90609566 97.34475883 3.56609566 97.00475883 4.24609566 C99.97475883 4.57609566 102.94475883 4.90609566 106.00475883 5.24609566 C106.00475883 7.22609566 106.00475883 9.20609566 106.00475883 11.24609566 C104.68475883 11.24609566 103.36475883 11.24609566 102.00475883 11.24609566 C102.00475883 19.49609566 102.00475883 27.74609566 102.00475883 36.24609566 C99.69475883 35.91609566 97.38475883 35.58609566 95.00475883 35.24609566 C95.00475883 27.32609566 95.00475883 19.40609566 95.00475883 11.24609566 C93.35475883 10.91609566 91.70475883 10.58609566 90.00475883 10.24609566 C90.00475883 8.92609566 90.00475883 7.60609566 90.00475883 6.24609566 C89.34475883 6.24609566 88.68475883 6.24609566 88.00475883 6.24609566 C88.00475883 7.56609566 88.00475883 8.88609566 88.00475883 10.24609566 C85.36475883 10.24609566 82.72475883 10.24609566 80.00475883 10.24609566 C80.00475883 12.55609566 80.00475883 14.86609566 80.00475883 17.24609566 C81.98475883 17.24609566 83.96475883 17.24609566 86.00475883 17.24609566 C86.00475883 18.56609566 86.00475883 19.88609566 86.00475883 21.24609566 C84.35475883 21.24609566 82.70475883 21.24609566 81.00475883 21.24609566 C81.00475883 24.54609566 81.00475883 27.84609566 81.00475883 31.24609566 C82.98475883 31.24609566 84.96475883 31.24609566 87.00475883 31.24609566 C87.00475883 32.56609566 87.00475883 33.88609566 87.00475883 35.24609566 C82.71475883 35.24609566 78.42475883 35.24609566 74.00475883 35.24609566 C73.67475883 26.00609566 73.34475883 16.76609566 73.00475883 7.24609566 C68.77524831 8.6559325 67.95958781 11.08143131 65.96179008 14.91406441 C64.60694097 18.21547226 64.8149977 19.88677011 66.00475883 23.24609566 C67.01536478 25.58665902 68.05172923 27.90159694 69.16491508 30.19531441 C70.00475883 32.24609566 70.00475883 32.24609566 70.00475883 35.24609566 C67.69475883 35.24609566 65.38475883 35.24609566 63.00475883 35.24609566 C61.50654824 31.87512182 61.00475883 30.04167447 61.00475883 26.24609566 C60.34475883 26.24609566 59.68475883 26.24609566 59.00475883 26.24609566 C59.00475883 29.21609566 59.00475883 32.18609566 59.00475883 35.24609566 C57.02475883 35.24609566 55.04475883 35.24609566 53.00475883 35.24609566 C53.00475883 25.34609566 53.00475883 15.44609566 53.00475883 5.24609566 C54.98475883 5.24609566 56.96475883 5.24609566 59.00475883 5.24609566 C59.49975883 8.71109566 59.49975883 8.71109566 60.00475883 12.24609566 C61.32475883 9.60609566 62.64475883 6.96609566 64.00475883 4.24609566 C65.65475883 4.24609566 67.30475883 4.24609566 69.00475883 4.24609566 C69.00475883 3.25609566 69.00475883 2.26609566 69.00475883 1.24609566 C52.66975883 1.74109566 52.66975883 1.74109566 36.00475883 2.24609566 C36.49975883 3.23609566 36.49975883 3.23609566 37.00475883 4.24609566 C39.55710035 4.6017129 42.08344535 4.68989319 44.65710258 4.80468941 C45.81919243 5.0231855 45.81919243 5.0231855 47.00475883 5.24609566 C49.43421043 8.89027306 49.16655458 10.95850838 49.00475883 15.24609566 C47.02475883 15.57609566 45.04475883 15.90609566 43.00475883 16.24609566 C43.00475883 14.26609566 43.00475883 12.28609566 43.00475883 10.24609566 C42.01475883 10.24609566 41.02475883 10.24609566 40.00475883 10.24609566 C40.00475883 17.17609566 40.00475883 24.10609566 40.00475883 31.24609566 C40.99475883 31.24609566 41.98475883 31.24609566 43.00475883 31.24609566 C43.00475883 28.93609566 43.00475883 26.62609566 43.00475883 24.24609566 C44.98475883 24.24609566 46.96475883 24.24609566 49.00475883 24.24609566 C49.0587562 25.7040245 49.0975506 27.16252278 49.12975883 28.62109566 C49.15296196 29.43320503 49.17616508 30.24531441 49.20007133 31.08203316 C49.00475883 33.24609566 49.00475883 33.24609566 47.00475883 35.24609566 C44.47350883 35.51172066 44.47350883 35.51172066 41.50475883 35.49609566 C40.52507133 35.50125191 39.54538383 35.50640816 38.53600883 35.51172066 C36.00475883 35.24609566 36.00475883 35.24609566 34.00475883 33.24609566 C33.77770805 30.724123 33.77770805 30.724123 33.80944633 27.58203316 C33.81589165 26.46054878 33.82233696 25.33906441 33.82897758 24.18359566 C33.8457354 23.00797066 33.86249321 21.83234566 33.87975883 20.62109566 C33.88878227 19.43773628 33.89780571 18.25437691 33.90710258 17.03515816 C33.93073071 14.10527043 33.96367369 11.17578225 34.00475883 8.24609566 C32.68475883 7.91609566 31.36475883 7.58609566 30.00475883 7.24609566 C29.67475883 16.48609566 29.34475883 25.72609566 29.00475883 35.24609566 C27.02475883 35.24609566 25.04475883 35.24609566 23.00475883 35.24609566 C23.00475883 26.00609566 23.00475883 16.76609566 23.00475883 7.24609566 C22.01475883 7.24609566 21.02475883 7.24609566 20.00475883 7.24609566 C19.67475883 8.56609566 19.34475883 9.88609566 19.00475883 11.24609566 C17.68475883 11.24609566 16.36475883 11.24609566 15.00475883 11.24609566 C15.00475883 19.16609566 15.00475883 27.08609566 15.00475883 35.24609566 C12.69475883 35.24609566 10.38475883 35.24609566 8.00475883 35.24609566 C8.00475883 27.32609566 8.00475883 19.40609566 8.00475883 11.24609566 C6.35475883 10.91609566 4.70475883 10.58609566 3.00475883 10.24609566 C3.00475883 8.92609566 3.00475883 7.60609566 3.00475883 6.24609566 C1.68475883 5.91609566 0.36475883 5.58609566 -0.99524117 5.24609566 C-1.32524117 15.80609566 -1.65524117 26.36609566 -1.99524117 37.24609566 C-2.65524117 37.24609566 -3.31524117 37.24609566 -3.99524117 37.24609566 C-4.04460626 32.29819388 -4.08094385 27.35043483 -4.10510445 22.40234566 C-4.11517433 20.71840099 -4.12883104 19.03447386 -4.14612007 17.35058784 C-4.17032542 14.93290065 -4.18171413 12.51544422 -4.19055367 10.09765816 C-4.20087624 9.34239845 -4.21119881 8.58713875 -4.22183418 7.80899239 C-4.22223435 5.95315586 -4.11746833 4.09790286 -3.99524117 2.24609566 C-1.99524117 0.24609566 -1.99524117 0.24609566 0 0 Z " fill="#F5D346" transform="translate(31.995241165161133,139.75390434265137)"/>
<path d="M0 0 C2.47282475 0.15455155 3.6926437 0.75808559 5.6328125 2.28515625 C7.40668485 4.51009899 7.17299577 5.52960406 6.875 8.3125 C6.7749806 11.71315955 6.99256294 13.77070011 9 16.5625 C12.5681466 19.46161911 13.73845637 19.26381165 18.0625 18.87890625 C20 19 20 19 23 21.5 C23.99 22.7375 23.99 22.7375 25 24 C23.62647072 27.11836333 22.08161027 29.11865428 19.5859375 31.42578125 C18.56693359 32.37420898 18.56693359 32.37420898 17.52734375 33.34179688 C16.81707031 33.99212891 16.10679688 34.64246094 15.375 35.3125 C14.68792969 35.95123047 14.00085938 36.58996094 13.29296875 37.24804688 C9.22319074 41.01621845 5.0815823 44.69196656 0.89746094 48.33227539 C-1.97298301 50.85517845 -4.76792144 53.45622843 -7.5625 56.0625 C-11.9601101 60.14494911 -16.39794557 64.14711722 -21 68 C-24.16115776 66.63016497 -24.9927092 66.0109362 -27 63 C-27.01953125 60.9140625 -27.01953125 60.9140625 -26.8125 58.625 C-26.74713774 54.98253942 -26.9063696 54.14337154 -29 50.9375 C-31.96481606 48.63831638 -31.96481606 48.63831638 -36 49 C-40 49 -40 49 -43 46.5 C-43.66 45.675 -44.32 44.85 -45 44 C-41.8072605 36.55587581 -34.31965957 31.18157027 -28.2890625 26.00390625 C-25.35037736 23.43130305 -22.48856157 20.78064894 -19.625 18.125 C-14.7986679 13.64990286 -9.93526776 9.22132689 -5.0234375 4.83984375 C-3.01535205 3.0622552 -3.01535205 3.0622552 -1.3515625 1.24609375 C-0.68253906 0.62927734 -0.68253906 0.62927734 0 0 Z " fill="#F3F3EF" transform="translate(106,8)"/>
<path d="M0 0 C1.75 1.625 1.75 1.625 3 3 C1.62647072 6.11836333 0.08161027 8.11865428 -2.4140625 10.42578125 C-3.09339844 11.05806641 -3.77273437 11.69035156 -4.47265625 12.34179688 C-5.18292969 12.99212891 -5.89320312 13.64246094 -6.625 14.3125 C-7.31207031 14.95123047 -7.99914062 15.58996094 -8.70703125 16.24804688 C-12.77680926 20.01621845 -16.9184177 23.69196656 -21.10253906 27.33227539 C-23.97298301 29.85517845 -26.76792144 32.45622843 -29.5625 35.0625 C-33.9601101 39.14494911 -38.39794557 43.14711722 -43 47 C-46.16115776 45.63016497 -46.9927092 45.0109362 -49 42 C-49.01953125 39.9140625 -49.01953125 39.9140625 -48.8125 37.625 C-48.74713774 33.98253942 -48.9063696 33.14337154 -51 29.9375 C-53.96481606 27.63831638 -53.96481606 27.63831638 -58 28 C-62 28 -62 28 -65 25.5 C-65.66 24.675 -66.32 23.85 -67 23 C-65.46356148 19.31930113 -63.21849055 17.01224796 -60.375 14.25 C-59.55773437 13.45078125 -58.74046875 12.6515625 -57.8984375 11.828125 C-57.27195312 11.22484375 -56.64546875 10.6215625 -56 10 C-55.34 10.33 -54.68 10.66 -54 11 C-55.98 12.98 -57.96 14.96 -60 17 C-57.32357511 19.18490007 -57.32357511 19.18490007 -55 19 C-55 17.68 -55 16.36 -55 15 C-49.25 14 -49.25 14 -47 14 C-47.495 13.38125 -47.99 12.7625 -48.5 12.125 C-50 10 -50 10 -50 8 C-46.64065168 9.43124553 -44.68207173 11.17728304 -42.3125 13.9375 C-41.71050781 14.62714844 -41.10851562 15.31679688 -40.48828125 16.02734375 C-39 18 -39 18 -38 21 C-37.34 21 -36.68 21 -36 21 C-36 21.66 -36 22.32 -36 23 C-34.576875 21.7625 -34.576875 21.7625 -33.125 20.5 C-30.25 18 -30.25 18 -28 18 C-28 17.34 -28 16.68 -28 16 C-26.30096977 14.48259024 -24.53927277 13.034872 -22.75 11.625 C-19.30145932 8.89718607 -16.04493931 6.17543671 -13 3 C-12.34 3.33 -11.68 3.66 -11 4 C-15.58438023 8.69411273 -20.2592218 13.18731358 -25.2421875 17.45703125 C-26.67962714 18.71878383 -28.04022497 20.06759931 -29.375 21.4375 C-31 23 -31 23 -33 23 C-32.03114628 24.68496298 -31.03013277 26.35178756 -30 28 C-29.67 28 -29.34 28 -29 28 C-28.01 25.69 -27.02 23.38 -26 21 C-23.69 21 -21.38 21 -19 21 C-19.66 20.01 -20.32 19.02 -21 18 C-21 17.01 -21 16.02 -21 15 C-16.77777778 12 -16.77777778 12 -14 12 C-13.566875 11.1028125 -13.566875 11.1028125 -13.125 10.1875 C-12 8 -12 8 -10 5 C-8.68 5 -7.36 5 -6 5 C-5.34 4.67 -4.68 4.34 -4 4 C-4.75150023 0.72226496 -4.75150023 0.72226496 -8 -1 C-4.5869878 -2.21893293 -3.03675594 -1.95919738 0 0 Z " fill="#F2F2F1" transform="translate(128,29)"/>
<path d="M0 0 C-0.33 1.65 -0.66 3.3 -1 5 C0.32 4.67 1.64 4.34 3 4 C2.67 5.32 2.34 6.64 2 8 C3.32 7.67 4.64 7.34 6 7 C4.125 10.875 4.125 10.875 3 12 C2.73412169 15.05760057 2.56590119 17.20840805 4.0625 19.9375 C7.15401901 21.63284914 9.6544291 20.71690805 13 20 C13.99 19.67 14.98 19.34 16 19 C16 20.32 16 21.64 16 23 C17.32 22.67 18.64 22.34 20 22 C19.505 24.475 19.505 24.475 19 27 C20.32 26.67 21.64 26.34 23 26 C23.4375 28.0625 23.4375 28.0625 23 31 C19.49808587 35.50858058 14.79183074 39.08601806 10.484375 42.80078125 C7.18250564 45.72366246 3.96788156 48.7352298 0.75 51.75 C-16.77489476 68.16119979 -16.77489476 68.16119979 -25.37890625 75.5625 C-27.03945855 76.98683945 -27.03945855 76.98683945 -28.546875 78.67578125 C-30 80 -30 80 -32.6875 80.1875 C-33.8321875 80.0946875 -33.8321875 80.0946875 -35 80 C-35.33 79.01 -35.66 78.02 -36 77 C-35.67 76.34 -35.34 75.68 -35 75 C-36.98 75.495 -36.98 75.495 -39 76 C-38.67 74.68 -38.34 73.36 -38 72 C-39.98 72.495 -39.98 72.495 -42 73 C-41.42655063 70.13275314 -41.1385485 69.1385485 -39 67 C-38.63976378 64.19015752 -38.61667398 62.61758081 -40.125 60.1875 C-42.86630357 58.45134107 -44.80832241 58.68083224 -48 59 C-50.78566059 59.91257306 -50.78566059 59.91257306 -53 61 C-52.67 59.68 -52.34 58.36 -52 57 C-52.99 57 -53.98 57 -55 57 C-55 55.68 -55 54.36 -55 53 C-56.98 53.495 -56.98 53.495 -59 54 C-57.70908243 44.10296529 -48.33817063 38.03242743 -41.1796875 31.89453125 C-38.4933014 29.55958993 -35.86977224 27.1589667 -33.25 24.75 C-32.74186768 24.28303711 -32.23373535 23.81607422 -31.71020508 23.33496094 C-30.1395658 21.89059309 -28.56972973 20.44535622 -27 19 C-25.95977783 18.04281396 -24.91941425 17.08578158 -23.87890625 16.12890625 C-23.11586182 15.42713257 -23.11586182 15.42713257 -22.33740234 14.71118164 C-20.83665339 13.33465414 -19.33059681 11.96411142 -17.82421875 10.59375 C-16.01285967 8.93020584 -14.22161387 7.24433174 -12.45703125 5.53125 C-11.30267578 4.43296875 -11.30267578 4.43296875 -10.125 3.3125 C-9.46757813 2.66925781 -8.81015625 2.02601562 -8.1328125 1.36328125 C-5.32114769 -0.43391842 -3.2698744 -0.24687086 0 0 Z M-10.19921875 7.94140625 C-11.02035156 8.80636719 -11.84148437 9.67132813 -12.6875 10.5625 C-16.25372672 14.23663848 -19.86053215 17.70301138 -23.74609375 21.03125 C-26.6752068 23.58978202 -29.52367252 26.23039788 -32.375 28.875 C-37.16745717 33.31919233 -41.99730045 37.71597747 -46.87890625 42.0625 C-48.9828293 43.98431553 -51.00124308 45.96951678 -53 48 C-51.60478153 51.37177797 -50.23717239 53.25017709 -47 55 C-45.2984375 54.938125 -45.2984375 54.938125 -43.5625 54.875 C-40 55 -40 55 -37.0625 56.9375 C-34.55516729 60.66050918 -34.80846064 62.51808778 -35.08984375 66.83984375 C-34.95296837 70.1308039 -33.2908543 71.7807349 -31 74 C-27.63551546 72.51993197 -25.25996355 70.60866795 -22.5625 68.125 C-21.68722656 67.32320312 -20.81195313 66.52140625 -19.91015625 65.6953125 C-18.94980469 64.80585937 -17.98945312 63.91640625 -17 63 C-15.93637381 62.01803861 -14.87256634 61.03627354 -13.80859375 60.0546875 C-12.14592592 58.52006903 -10.48373524 56.98494995 -8.82299805 55.44824219 C-4.74683598 51.6786171 -0.634271 47.95197812 3.5 44.24609375 C8.01951329 40.18559353 12.5078674 36.09074432 17 32 C15.14581397 27.97029362 15.14581397 27.97029362 12 25 C10.72125 25.061875 9.4425 25.12375 8.125 25.1875 C4.43517747 25.31004023 4.11356727 25.09227341 1 22.5625 C-1.48207234 19.11381203 -1.17078159 16.15863836 -0.921875 12.05859375 C-0.8215683 9.75756932 -0.8215683 9.75756932 -2.8125 7.4375 C-6.0280516 5.32442323 -7.311984 5.39263952 -10.19921875 7.94140625 Z " fill="#181616" transform="translate(114,2)"/>
<path d="M0 0 C2.31 0 4.62 0 7 0 C8.32 5.28 9.64 10.56 11 16 C12.79605308 10.69347953 14.50660362 5.3992023 16 0 C18.64 0 21.28 0 24 0 C24 12.87 24 25.74 24 39 C21.36 39 18.72 39 16 39 C15.67 34.38 15.34 29.76 15 25 C14.01 27.97 13.02 30.94 12 34 C10 31 10 31 8 25 C7.67 29.62 7.34 34.24 7 39 C4.69 39 2.38 39 0 39 C0 26.13 0 13.26 0 0 Z " fill="#4B4B4C" transform="translate(53,99)"/>
<path d="M0 0 C13 0 13 0 18 4 C18.59375 7.56640625 18.59375 7.56640625 18.5 11.5625 C18.50386719 12.57086914 18.50386719 12.57086914 18.5078125 13.59960938 C18.4478676 16.61783501 18.35483755 18.54468549 16.46875 20.96484375 C15.74171875 21.47724609 15.74171875 21.47724609 15 22 C15.20496094 22.72445312 15.40992187 23.44890625 15.62109375 24.1953125 C16.99054223 29.10960129 18.31532637 33.93341513 19 39 C16.69 39 14.38 39 12 39 C11.51801537 37.75108386 11.03954323 36.50081192 10.5625 35.25 C10.29566406 34.55390625 10.02882813 33.8578125 9.75390625 33.140625 C9 31 9 31 8 27 C7.67 30.96 7.34 34.92 7 39 C4.69 39 2.38 39 0 39 C0 26.13 0 13.26 0 0 Z " fill="#404041" transform="translate(104,99)"/>
<path d="M0 0 C0.99 0.33 1.98 0.66 3 1 C3 10.24 3 19.48 3 29 C7.29 29 11.58 29 16 29 C16 27.68 16 26.36 16 25 C14.02 25 12.04 25 10 25 C10 21.7 10 18.4 10 15 C11.65 15 13.3 15 15 15 C15 13.68 15 12.36 15 11 C13.02 11 11.04 11 9 11 C9 8.69 9 6.38 9 4 C11.64 4 14.28 4 17 4 C17 2.68 17 1.36 17 0 C17.66 0 18.32 0 19 0 C19.495 1.98 19.495 1.98 20 4 C21.32 4.33 22.64 4.66 24 5 C24 5.99 24 6.98 24 8 C23.34 8 22.68 8 22 8 C22 8.66 22 9.32 22 10 C21.34 10 20.68 10 20 10 C20 11.65 20 13.3 20 15 C20.66 15 21.32 15 22 15 C22 18.63 22 22.26 22 26 C21.01 26 20.02 26 19 26 C19.33 26.33 19.66 26.66 20 27 C20.04063832 28.66617115 20.042721 30.33388095 20 32 C17.39048764 33.30475618 15.47298715 33.11301572 12.5546875 33.09765625 C10.94013672 33.09282227 10.94013672 33.09282227 9.29296875 33.08789062 C8.16503906 33.07951172 7.03710938 33.07113281 5.875 33.0625 C4.73933594 33.05798828 3.60367188 33.05347656 2.43359375 33.04882812 C-0.37765638 33.03701615 -3.1888023 33.02054507 -6 33 C-6 32.34 -6 31.68 -6 31 C-6.99 31.66 -7.98 32.32 -9 33 C-14.34545455 33.32727273 -14.34545455 33.32727273 -17 32 C-17 31.34 -17 30.68 -17 30 C-15.35 30 -13.7 30 -12 30 C-12 26.7 -12 23.4 -12 20 C-11.34 20 -10.68 20 -10 20 C-9.34 22.97 -8.68 25.94 -8 29 C-5.69 29 -3.38 29 -1 29 C-1.44472656 27.97519531 -1.88945313 26.95039063 -2.34765625 25.89453125 C-2.91995757 24.53414287 -3.49153423 23.17344946 -4.0625 21.8125 C-4.35705078 21.13896484 -4.65160156 20.46542969 -4.95507812 19.77148438 C-6.611482 15.77662797 -7.55613565 13.11264421 -6 9 C-4.58984375 6.54296875 -4.58984375 6.54296875 -2.9375 4.1875 C-2.38964844 3.39730469 -1.84179688 2.60710937 -1.27734375 1.79296875 C-0.85582031 1.20128906 -0.43429688 0.60960937 0 0 Z " fill="#F4D148" transform="translate(103,146)"/>
<path d="M0 0 C3.63 0 7.26 0 11 0 C11.08564209 0.86165771 11.17128418 1.72331543 11.25952148 2.61108398 C11.58153835 5.8484298 11.90402133 9.08572877 12.22680664 12.32299805 C12.3656615 13.71653451 12.50433767 15.1100888 12.64282227 16.50366211 C13.38859003 24.00710887 14.145434 31.50802815 15 39 C12.36 39 9.72 39 7 39 C7 36.69 7 34.38 7 32 C5.68 32 4.36 32 3 32 C3 34.31 3 36.62 3 39 C0.69 39 -1.62 39 -4 39 C-3.6211944 25.75486621 -2.52632915 13.01297847 0 0 Z " fill="#3F3F40" transform="translate(85,99)"/>
<path d="M0 0 C3 1.5625 3 1.5625 5 4 C5.3125 7.75 5.3125 7.75 5 11 C2.69 11 0.38 11 -2 11 C-2.33 9.68 -2.66 8.36 -3 7 C-3.66 7 -4.32 7 -5 7 C-5.83953267 10.19904988 -5.83953267 10.19904988 -5 14 C-2.73001027 15.57623945 -2.73001027 15.57623945 0 17 C2.75390625 18.70703125 2.75390625 18.70703125 5 21 C6.1879791 26.14422576 6.26868285 30.82495416 5 36 C2.64448631 38.5133574 1.04517572 39.76029697 -2.31640625 40.53125 C-5.94214652 40.48080492 -8.3564837 40.36099695 -11.5625 38.5625 C-13.66488173 34.81477605 -13.52129014 31.21304981 -13 27 C-12 26 -12 26 -8.9375 25.9375 C-7.4834375 25.9684375 -7.4834375 25.9684375 -6 26 C-6 28.64 -6 31.28 -6 34 C-4.68 34 -3.36 34 -2 34 C-1.82305039 30.48224185 -1.97241557 27.38267026 -3 24 C-5.67772273 21.12183354 -8.68485629 19.08471537 -12 17 C-13.71944301 15.28055699 -13.29345984 13.09584777 -13.375 10.75 C-13.32295249 6.74754652 -13.17879132 5.28494866 -11 1.8125 C-7.14469202 -0.51674857 -4.39117234 -0.93843602 0 0 Z " fill="#2F2F30" transform="translate(43,98)"/>
<path d="M0 0 C4.96622349 -0.02465098 9.93241166 -0.04283649 14.89868164 -0.05493164 C16.58944316 -0.0599719 18.28020029 -0.06680405 19.97094727 -0.07543945 C22.39600707 -0.08751857 24.82100944 -0.09323123 27.24609375 -0.09765625 C28.38672523 -0.10539818 28.38672523 -0.10539818 29.55039978 -0.11329651 C31.3673257 -0.11349238 33.18413127 -0.06197277 35 0 C36.75604008 1.75604008 36.12832585 4.05932323 36.13894653 6.39830017 C36.1369223 7.15244705 36.13489807 7.90659393 36.1328125 8.68359375 C36.13376923 9.45429703 36.13472595 10.22500031 36.13571167 11.01905823 C36.13639349 12.65243613 36.13453909 14.28581673 36.13037109 15.91918945 C36.12503007 18.42340172 36.13031224 20.92743403 36.13671875 23.43164062 C36.13605783 25.0156254 36.13477637 26.59961006 36.1328125 28.18359375 C36.13483673 28.9357164 36.13686096 29.68783905 36.13894653 30.4627533 C36.11495624 35.77008751 36.11495624 35.77008751 35 38 C32.87506859 38.02693575 30.75004088 38.04636628 28.625 38.0625 C26.84996094 38.07990234 26.84996094 38.07990234 25.0390625 38.09765625 C22 38 22 38 20 37 C20 36.34 20 35.68 20 35 C21.98 35 23.96 35 26 35 C26 26.75 26 18.5 26 10 C27.32 10 28.64 10 30 10 C30 8.02 30 6.04 30 4 C26.7 4 23.4 4 20 4 C20.33 3.34 20.66 2.68 21 2 C14.07 1.67 7.14 1.34 0 1 C0 0.67 0 0.34 0 0 Z " fill="#FAD137" transform="translate(108,141)"/>
<path d="M0 0 C2.67001167 1.21364167 4.20387466 2.68059781 6.0625 4.9375 C6.0625 5.9275 6.0625 6.9175 6.0625 7.9375 C6.660625 8.205625 7.25875 8.47375 7.875 8.75 C10.03474808 9.92243467 11.42040256 11.13119282 13.0625 12.9375 C12.4025 14.2575 11.7425 15.5775 11.0625 16.9375 C10.4025 16.9375 9.7425 16.9375 9.0625 16.9375 C9.0625 17.5975 9.0625 18.2575 9.0625 18.9375 C8.4025 18.9375 7.7425 18.9375 7.0625 18.9375 C6.588125 19.5975 6.11375 20.2575 5.625 20.9375 C5.109375 21.5975 4.59375 22.2575 4.0625 22.9375 C3.0725 22.9375 2.0825 22.9375 1.0625 22.9375 C1.0625 23.5975 1.0625 24.2575 1.0625 24.9375 C0.4025 24.9375 -0.2575 24.9375 -0.9375 24.9375 C-0.9375 25.5975 -0.9375 26.2575 -0.9375 26.9375 C-1.5975 26.9375 -2.2575 26.9375 -2.9375 26.9375 C-2.6075 25.6175 -2.2775 24.2975 -1.9375 22.9375 C-2.72125 22.875625 -3.505 22.81375 -4.3125 22.75 C-5.17875 22.481875 -6.045 22.21375 -6.9375 21.9375 C-7.65477778 20.29198038 -8.32075228 18.62327711 -8.9375 16.9375 C-10.26270503 16.25481862 -11.59562182 15.5867959 -12.9375 14.9375 C-13.6875 12.8125 -13.6875 12.8125 -13.9375 10.9375 C-11.55176621 9.04536631 -9.86574652 7.91358217 -6.9375 6.9375 C-6.23598848 5.6221659 -5.57224075 4.28632408 -4.9375 2.9375 C-2.64434039 -0.0853013 -2.64434039 -0.0853013 0 0 Z " fill="#8A8A8C" transform="translate(99.9375,18.0625)"/>
<path d="M0 0 C0.495 1.485 0.495 1.485 1 3 C2.65 3 4.3 3 6 3 C6 2.34 6 1.68 6 1 C10.34975505 -1.17487752 16.22394304 -0.18498893 21 -0.1875 C22.19496094 -0.19974609 23.38992187 -0.21199219 24.62109375 -0.22460938 C31.66292848 -0.23617865 38.16636327 0.26305172 45 2 C45 2.66 45 3.32 45 4 C37.74980896 7.62509552 26.55404501 6.15965068 18.5859375 6.16796875 C17.45024323 6.17129715 16.31454895 6.17462555 15.1444397 6.17805481 C12.76296387 6.1830798 10.38148112 6.18546452 8 6.18530273 C4.37748622 6.18749849 0.75527299 6.20572707 -2.8671875 6.22460938 C-5.19531147 6.22754248 -7.52343687 6.22952783 -9.8515625 6.23046875 C-10.9216153 6.23765427 -11.99166809 6.24483978 -13.09414673 6.25224304 C-19.6274709 6.23256765 -25.64998597 5.54889265 -32 4 C-32 3.34 -32 2.68 -32 2 C-21.25368837 0.52682142 -10.85299084 -0.28435784 0 0 Z " fill="#BFBEBE" transform="translate(79,84)"/>
<path d="M0 0 C1.98 0 3.96 0 6 0 C6.33 2.31 6.66 4.62 7 7 C7.53625 6.01 8.0725 5.02 8.625 4 C9.40875 3.01 10.1925 2.02 11 1 C14.25 0.625 14.25 0.625 17 1 C16.04682232 4.15281849 15.1638897 6.75720045 13.3125 9.5 C11.52677857 12.90137415 11.93910155 14.32221872 13 18 C13.99840619 20.34705972 15.04651461 22.65456213 16.16015625 24.94921875 C17 27 17 27 17 30 C14.69 30 12.38 30 10 30 C8.50178941 26.62902617 8 24.79557881 8 21 C7.34 21 6.68 21 6 21 C6 23.97 6 26.94 6 30 C4.02 30 2.04 30 0 30 C0 20.1 0 10.2 0 0 Z " fill="#F8F6EE" transform="translate(85,145)"/>
<path d="M0 0 C2.475 0.99 2.475 0.99 5 2 C5.8125 4.125 5.8125 4.125 6 6 C7.32 6.33 8.64 6.66 10 7 C10 15.25 10 23.5 10 32 C10.66 32 11.32 32 12 32 C12 32.66 12 33.32 12 34 C15.465 33.505 15.465 33.505 19 33 C19.33 25.74 19.66 18.48 20 11 C21.32 10.34 22.64 9.68 24 9 C24 9.66 24 10.32 24 11 C23.34 11 22.68 11 22 11 C21.67 18.59 21.34 26.18 21 34 C21.66 34 22.32 34 23 34 C23 33.34 23 32.68 23 32 C23.99 32 24.98 32 26 32 C26 32.99 26 33.98 26 35 C22.04168191 35.02892857 18.08339083 35.04677427 14.125 35.0625 C12.43310547 35.07506836 12.43310547 35.07506836 10.70703125 35.08789062 C9.63066406 35.09111328 8.55429687 35.09433594 7.4453125 35.09765625 C6.45031738 35.10289307 5.45532227 35.10812988 4.43017578 35.11352539 C2 35 2 35 0 34 C0 22.78 0 11.56 0 0 Z " fill="#FAD236" transform="translate(30,144)"/>
<path d="M0 0 C5.61 0 11.22 0 17 0 C17 1.98 17 3.96 17 6 C15.35 6 13.7 6 12 6 C12 16.89 12 27.78 12 39 C9.69 39 7.38 39 5 39 C5 28.11 5 17.22 5 6 C3.35 6 1.7 6 0 6 C0 4.02 0 2.04 0 0 Z " fill="#3A3A3B" transform="translate(125,99)"/>
<path d="M0 0 C0.7734375 0.00386719 1.546875 0.00773438 2.34375 0.01171875 C4.5 0.3125 4.5 0.3125 7.5 2.3125 C7.6875 5.9375 7.6875 5.9375 7.5 9.3125 C5.52 9.6425 3.54 9.9725 1.5 10.3125 C1.5 8.3325 1.5 6.3525 1.5 4.3125 C0.51 4.3125 -0.48 4.3125 -1.5 4.3125 C-1.5 11.2425 -1.5 18.1725 -1.5 25.3125 C-0.51 25.3125 0.48 25.3125 1.5 25.3125 C1.5 23.0025 1.5 20.6925 1.5 18.3125 C3.48 18.3125 5.46 18.3125 7.5 18.3125 C7.55399736 19.77042884 7.59279177 21.22892712 7.625 22.6875 C7.64820312 23.49960938 7.67140625 24.31171875 7.6953125 25.1484375 C7.5 27.3125 7.5 27.3125 5.5 29.3125 C2.96875 29.578125 2.96875 29.578125 0 29.5625 C-0.9796875 29.56765625 -1.959375 29.5728125 -2.96875 29.578125 C-5.5 29.3125 -5.5 29.3125 -7.5 27.3125 C-7.95655797 23.35201178 -7.82402042 19.3587619 -7.8125 15.375 C-7.82861328 14.26447266 -7.84472656 13.15394531 -7.86132812 12.00976562 C-7.86197266 10.94564453 -7.86261719 9.88152344 -7.86328125 8.78515625 C-7.86626221 7.80812744 -7.86924316 6.83109863 -7.87231445 5.82446289 C-7.5 3.3125 -7.5 3.3125 -6.11206055 1.49316406 C-3.98095807 -0.06764339 -2.61959804 -0.05675796 0 0 Z " fill="#FBFBF5" transform="translate(73.5,145.6875)"/>
<path d="M0 0 C11.55 0 23.1 0 35 0 C35 0.99 35 1.98 35 3 C33.35 3 31.7 3 30 3 C29.896875 3.53625 29.79375 4.0725 29.6875 4.625 C28.81907303 7.62502044 27.44379704 10.2379535 26 13 C25.67 13 25.34 13 25 13 C25 10.03 25 7.06 25 4 C23.02 4.33 21.04 4.66 19 5 C18.67 8.96 18.34 12.92 18 17 C15.03 17 12.06 17 9 17 C9 21.29 9 25.58 9 30 C8.01 30 7.02 30 6 30 C6 23.07 6 16.14 6 9 C6.99 9 7.98 9 9 9 C9 10.98 9 12.96 9 15 C10.98 14.67 12.96 14.34 15 14 C14.54177532 10.53058454 14.10868317 7.32604951 13 4 C9.37 4 5.74 4 2 4 C2 3.34 2 2.68 2 2 C1.34 1.34 0.68 0.68 0 0 Z " fill="#FBD235" transform="translate(66,141)"/>
<path d="M0 0 C4.29 0 8.58 0 13 0 C13 1.32 13 2.64 13 4 C10.69 4 8.38 4 6 4 C6 6.31 6 8.62 6 11 C7.98 11 9.96 11 12 11 C12 12.32 12 13.64 12 15 C10.35 15 8.7 15 7 15 C7 18.3 7 21.6 7 25 C8.98 25 10.96 25 13 25 C13 26.32 13 27.64 13 29 C8.71 29 4.42 29 0 29 C0 19.43 0 9.86 0 0 Z " fill="#F9F9F0" transform="translate(106,146)"/>
<path d="M0 0 C4.95 0 9.9 0 15 0 C15 1.65 15 3.3 15 5 C13.68 5 12.36 5 11 5 C11 13.25 11 21.5 11 30 C8.69 29.67 6.38 29.34 4 29 C4 21.08 4 13.16 4 5 C2.68 5 1.36 5 0 5 C0 3.35 0 1.7 0 0 Z " fill="#FCFDFA" transform="translate(123,146)"/>
<path d="M0 0 C2.91739927 2.91739927 3.62414707 6.1225963 5 10 C5.99 7.03 6.98 4.06 8 1 C8.33 1 8.66 1 9 1 C9 5.95 9 10.9 9 16 C45.63 16.495 45.63 16.495 83 17 C83 17.99 83 18.98 83 20 C82.67 19.67 82.34 19.34 82 19 C80.55830537 18.89232174 79.11142142 18.85319047 77.66575623 18.84178162 C76.73041046 18.8319928 75.7950647 18.82220398 74.83137512 18.81211853 C73.79703842 18.80636307 72.76270172 18.8006076 71.69702148 18.79467773 C70.07283295 18.77982834 70.07283295 18.77982834 68.41583252 18.76467896 C64.81760891 18.73295588 61.21937207 18.70826397 57.62109375 18.68359375 C55.13387193 18.66303355 52.64665368 18.64203734 50.15943909 18.62062073 C44.26982112 18.57096517 38.38018203 18.52572497 32.49051291 18.48259836 C25.12970579 18.42843101 17.76895781 18.36745396 10.40820312 18.30664062 C-2.72782439 18.19894122 -15.8638918 18.09733335 -29 18 C-25.80830207 16.30923065 -23.36696975 15.66055024 -19.75 15.375 C-18.85796875 15.30023438 -17.9659375 15.22546875 -17.046875 15.1484375 C-16.37140625 15.09945312 -15.6959375 15.05046875 -15 15 C-15 15.33 -15 15.66 -15 16 C-10.05 16 -5.1 16 0 16 C0 10.72 0 5.44 0 0 Z " fill="#F5F1BF" transform="translate(60,122)"/>
<path d="M0 0 C4.95 0 9.9 0 15 0 C15 1.65 15 3.3 15 5 C13.68 5 12.36 5 11 5 C11 12.92 11 20.84 11 29 C8.69 29 6.38 29 4 29 C4 21.08 4 13.16 4 5 C2.68 5 1.36 5 0 5 C0 3.35 0 1.7 0 0 Z " fill="#F7F5E7" transform="translate(36,146)"/>
<path d="M0 0 C0.13536629 2.41854446 0.23420279 4.82949783 0.3125 7.25 C0.35439453 7.93191406 0.39628906 8.61382812 0.43945312 9.31640625 C0.53010999 13.051469 0.31569805 14.65339444 -2.234375 17.453125 C-6.28774608 19.72026476 -9.47979659 19.80115545 -14 19 C-16.5625 17.5625 -16.5625 17.5625 -18 15 C-18.36108698 11.96262132 -18.37573855 9.03670665 -18 6 C-17 5 -17 5 -13.9375 4.9375 C-12.4834375 4.9684375 -12.4834375 4.9684375 -11 5 C-11 7.64 -11 10.28 -11 13 C-9.68 13 -8.36 13 -7 13 C-7.33 9.37 -7.66 5.74 -8 2 C-1.125 0 -1.125 0 0 0 Z " fill="#393939" transform="translate(48,119)"/>
<path d="M0 0 C2.40299247 0.23254766 3.72875872 0.78960998 5.63671875 2.26953125 C7 4 7 4 7.1796875 6.15625 C7.07914063 6.9296875 6.97859375 7.703125 6.875 8.5 C6.78992188 9.2734375 6.70484375 10.046875 6.6171875 10.84375 C5.89774169 13.3572569 5.05199083 14.40855574 3 16 C-0.01863377 15.90262472 -0.91929041 15.08575393 -3 12.875 C-4.7941925 10.75094789 -4.7941925 10.75094789 -7.0625 11.0625 C-9.31078421 12.15037946 -10.54148896 12.95808454 -12 15 C-12.25069913 17.62570704 -12.25069913 17.62570704 -12 20 C-12.33 19.34 -12.66 18.68 -13 18 C-17.70842624 20.11326526 -17.70842624 20.11326526 -21 24 C-21.66 24 -22.32 24 -23 24 C-24.34882408 24.63474075 -25.6846659 25.29848848 -27 26 C-24.21016803 22.16398104 -21.07404698 19.22902975 -17.49609375 16.171875 C-14.31533223 13.40426404 -11.21963911 10.55069238 -8.125 7.6875 C-7.55338135 7.15954834 -6.9817627 6.63159668 -6.39282227 6.08764648 C-4.23114019 4.08671067 -2.08306072 2.08306072 0 0 Z " fill="#F2F3F4" transform="translate(106,8)"/>
<path d="M0 0 C1.75 1.625 1.75 1.625 3 3 C0.80485112 7.99041536 -2.96432564 11.12677593 -6.875 14.8125 C-7.59558594 15.51826172 -8.31617187 16.22402344 -9.05859375 16.95117188 C-9.75855469 17.61310547 -10.45851563 18.27503906 -11.1796875 18.95703125 C-11.81632324 19.56522705 -12.45295898 20.17342285 -13.10888672 20.80004883 C-15 22 -15 22 -17.11376953 21.87768555 C-19 21 -19 21 -21 18 C-21 17.01 -21 16.02 -21 15 C-16.77777778 12 -16.77777778 12 -14 12 C-13.71125 11.401875 -13.4225 10.80375 -13.125 10.1875 C-12 8 -12 8 -10 5 C-8.68 5 -7.36 5 -6 5 C-5.34 4.67 -4.68 4.34 -4 4 C-4.75150023 0.72226496 -4.75150023 0.72226496 -8 -1 C-4.5869878 -2.21893293 -3.03675594 -1.95919738 0 0 Z " fill="#E9EAEB" transform="translate(128,29)"/>
<path d="M0 0 C0.33 0 0.66 0 1 0 C1 3.96 1 7.92 1 12 C1.33 9.03 1.66 6.06 2 3 C2.99 3 3.98 3 5 3 C5.33 2.01 5.66 1.02 6 0 C6.66 0 7.32 0 8 0 C8.33 4.95 8.66 9.9 9 15 C8.01 15.33 7.02 15.66 6 16 C6.495 16.45375 6.99 16.9075 7.5 17.375 C9 19 9 19 9 21 C7.68 21 6.36 21 5 21 C5 23.31 5 25.62 5 28 C2.69 28 0.38 28 -2 28 C-1.8598002 24.64557336 -1.71181572 21.29153225 -1.5625 17.9375 C-1.52318359 16.99455078 -1.48386719 16.05160156 -1.44335938 15.08007812 C-1.21274604 9.98884522 -0.8300873 5.02935244 0 0 Z " fill="#434343" transform="translate(83,110)"/>
<path d="M0 0 C1.98 0 3.96 0 6 0 C6 9.9 6 19.8 6 30 C4.02 30 2.04 30 0 30 C0 20.1 0 10.2 0 0 Z " fill="#FBFBF0" transform="translate(55,145)"/>
<path d="M0 0 C1.30353538 2.60707075 1.09670911 4.49501781 1.0625 7.41015625 C1.05476563 8.48201172 1.04703125 9.55386719 1.0390625 10.65820312 C1.02617188 11.78162109 1.01328125 12.90503906 1 14.0625 C0.97461401 16.28250469 0.95353919 18.50256435 0.9375 20.72265625 C0.92589844 21.71015869 0.91429687 22.69766113 0.90234375 23.71508789 C0.74053933 25.96596197 0.74053933 25.96596197 2 27 C3.83115883 27.09851171 5.66619933 27.12972629 7.5 27.125 C9.00046875 27.12886719 9.00046875 27.12886719 10.53125 27.1328125 C12.94399622 27.27870382 12.94399622 27.27870382 14 26 C14.36760731 23.67182036 14.70241581 21.3381615 15 19 C15.99 19 16.98 19 18 19 C18.05391993 20.79133978 18.09275571 22.58313899 18.125 24.375 C18.14820313 25.37273437 18.17140625 26.37046875 18.1953125 27.3984375 C18 30 18 30 16 32 C5.18343356 33.91615537 -6.36962845 33.11554785 -17.3125 33.0625 C-19.13216022 33.05747197 -20.95182179 33.05291138 -22.77148438 33.04882812 C-27.1810237 33.03793265 -31.59049645 33.02074084 -36 33 C-36 32.01 -36 31.02 -36 30 C-35.34 30.33 -34.68 30.66 -34 31 C-31.52167341 31.15626576 -29.06688669 31.25813198 -26.5859375 31.31640625 C-25.85629791 31.33718735 -25.12665833 31.35796844 -24.37490845 31.37937927 C-22.04170237 31.44481917 -19.70838279 31.50373368 -17.375 31.5625 C-15.79425905 31.60569053 -14.21352961 31.64930499 -12.6328125 31.69335938 C-8.75532496 31.80049481 -4.87772315 31.90177782 -1 32 C-1.00523682 31.06615479 -1.01047363 30.13230957 -1.01586914 29.17016602 C-1.0328762 25.71687204 -1.04543302 22.26362233 -1.05493164 18.81030273 C-1.05997121 17.31355082 -1.06680287 15.81680384 -1.07543945 14.32006836 C-1.08752159 12.17300193 -1.09323191 10.02600038 -1.09765625 7.87890625 C-1.10289307 6.5854126 -1.10812988 5.29191895 -1.11352539 3.95922852 C-1 1 -1 1 0 0 Z " fill="#F2D44A" transform="translate(66,147)"/>
<path d="M0 0 C0.66 0.33 1.32 0.66 2 1 C-0.97 3.97 -0.97 3.97 -4 7 C-1.32357511 9.18490007 -1.32357511 9.18490007 1 9 C1 7.68 1 6.36 1 5 C2.98 4.67 4.96 4.34 7 4 C7.66 5.98 8.32 7.96 9 10 C8.01 10.33 7.02 10.66 6 11 C6 11.66 6 12.32 6 13 C5.01 13.495 5.01 13.495 4 14 C4.66 14.66 5.32 15.32 6 16 C5.67 16.66 5.34 17.32 5 18 C-4.73004484 18.76681614 -4.73004484 18.76681614 -7.84375 16.88671875 C-9.1875 15.5 -9.1875 15.5 -11 13 C-9.46356148 9.31930113 -7.21849055 7.01224796 -4.375 4.25 C-3.55773437 3.45078125 -2.74046875 2.6515625 -1.8984375 1.828125 C-0.95871094 0.92320313 -0.95871094 0.92320313 0 0 Z " fill="#F4F5F6" transform="translate(72,39)"/>
<path d="M0 0 C3.63 0 7.26 0 11 0 C11 4.29 11 8.58 11 13 C9.35 13 7.7 13 6 13 C6 12.34 6 11.68 6 11 C5.34 11 4.68 11 4 11 C3.67 12.32 3.34 13.64 3 15 C2.01 14.67 1.02 14.34 0 14 C0.01160156 14.59167969 0.02320312 15.18335937 0.03515625 15.79296875 C0.08322386 20.00231785 0.06006883 23.8922333 -1 28 C-1.33 28 -1.66 28 -2 28 C-1.86024595 24.45806625 -1.71211066 20.91653001 -1.5625 17.375 C-1.52318359 16.37597656 -1.48386719 15.37695312 -1.44335938 14.34765625 C-1.23427386 9.49043896 -0.97041445 4.77867956 0 0 Z " fill="#151418" transform="translate(85,99)"/>
<path d="M0 0 C2.31 0 4.62 0 7 0 C7.50904657 1.87256417 8.00682455 3.74819341 8.5 5.625 C8.7784375 6.66914062 9.056875 7.71328125 9.34375 8.7890625 C9.99118596 11.95687418 10.1161292 14.77741467 10 18 C6.7 18.66 3.4 19.32 0 20 C0 13.4 0 6.8 0 0 Z " fill="#0C0B0E" transform="translate(53,99)"/>
<path d="M0 0 C2.375 1 2.375 1 4 3 C4.66300779 6.57577233 4.65930485 9.75895557 2.9375 13 C-0.21863437 14.62897258 -2.52151049 14.48820905 -6 14 C-8.5 11.875 -8.5 11.875 -10 9 C-9.93572343 5.78617168 -9.53112958 3.83862565 -7.8125 1.125 C-5.08827656 -0.56589731 -3.14066901 -0.38457172 0 0 Z " fill="#E03437" transform="translate(155,88)"/>
<path d="M0 0 C2.31 0 4.62 0 7 0 C7 12.54 7 25.08 7 38 C5.02 38 3.04 38 1 38 C1 32.72 1 27.44 1 22 C1.33 22 1.66 22 2 22 C2 26.95 2 31.9 2 37 C3.32 37 4.64 37 6 37 C6 30.07 6 23.14 6 16 C4.02 16 2.04 16 0 16 C-1.18224668 12.45325997 -0.89329634 10.02477005 -0.5625 6.3125 C-0.46066406 5.13300781 -0.35882813 3.95351562 -0.25390625 2.73828125 C-0.17011719 1.83464844 -0.08632812 0.93101563 0 0 Z " fill="#151417" transform="translate(69,99)"/>
<path d="M0 0 C2.08268593 -0.08126087 4.16628658 -0.13930839 6.25 -0.1875 C7.99023438 -0.23970703 7.99023438 -0.23970703 9.765625 -0.29296875 C13.2537738 0.02298676 14.63390128 0.44832491 17 3 C17.25 6.6875 17.25 6.6875 17 10 C15.02 10.33 13.04 10.66 11 11 C11 9.35 11 7.7 11 6 C9.68 6 8.36 6 7 6 C7 7.65 7 9.3 7 11 C4.69 11 2.38 11 0 11 C0 7.37 0 3.74 0 0 Z " fill="#0F0E11" transform="translate(104,99)"/>
<path d="M0 0 C1.32 0.66 2.64 1.32 4 2 C4 12.23 4 22.46 4 33 C1.03 33 -1.94 33 -5 33 C-5.33 31.68 -5.66 30.36 -6 29 C-4.02 29 -2.04 29 0 29 C0 19.43 0 9.86 0 0 Z " fill="#BC9F37" transform="translate(61,146)"/>
<path d="M0 0 C0.66 0 1.32 0 2 0 C1.51421457 3.12290635 1.0013988 5.99580359 0 9 C-0.66 9 -1.32 9 -2 9 C-0.76368629 14.03356296 0.5487427 19.02426068 2 24 C2.66 24 3.32 24 4 24 C4 25.65 4 27.3 4 29 C3.28972656 28.98839844 2.57945313 28.97679687 1.84765625 28.96484375 C0.92855469 28.95582031 0.00945312 28.94679687 -0.9375 28.9375 C-2.31228516 28.92009766 -2.31228516 28.92009766 -3.71484375 28.90234375 C-5.96593327 28.74050951 -5.96593327 28.74050951 -7 30 C-12.52941176 30.23529412 -12.52941176 30.23529412 -15 29 C-15 28.34 -15 27.68 -15 27 C-13.35 27 -11.7 27 -10 27 C-10 23.7 -10 20.4 -10 17 C-9.34 17 -8.68 17 -8 17 C-7.34 19.97 -6.68 22.94 -6 26 C-3.69 26 -1.38 26 1 26 C0.55527344 24.97519531 0.11054687 23.95039063 -0.34765625 22.89453125 C-0.91995757 21.53414287 -1.49153423 20.17344946 -2.0625 18.8125 C-2.35705078 18.13896484 -2.65160156 17.46542969 -2.95507812 16.77148438 C-4.6091705 12.78220276 -5.49624879 10.1255792 -4 6 C-2.0625 2.6875 -2.0625 2.6875 0 0 Z " fill="#BAA03A" transform="translate(101,149)"/>
<path d="M0 0 C1.32 0.66 2.64 1.32 4 2 C4 3.98 4 5.96 4 8 C2.68 8.33 1.36 8.66 0 9 C-0.02505615 9.65597168 -0.0501123 10.31194336 -0.07592773 10.98779297 C-0.1917326 13.95040183 -0.31452886 16.91268031 -0.4375 19.875 C-0.47681641 20.90753906 -0.51613281 21.94007813 -0.55664062 23.00390625 C-0.59853516 23.99003906 -0.64042969 24.97617188 -0.68359375 25.9921875 C-0.73858032 27.35899658 -0.73858032 27.35899658 -0.79467773 28.75341797 C-1 31 -1 31 -2 33 C-7.75 33.125 -7.75 33.125 -10 32 C-10 31.34 -10 30.68 -10 30 C-8.02 30 -6.04 30 -4 30 C-4 21.75 -4 13.5 -4 5 C-2.68 5 -1.36 5 0 5 C0 3.35 0 1.7 0 0 Z " fill="#D2AF33" transform="translate(138,146)"/>
<path d="M0 0 C0.99 0.33 1.98 0.66 3 1 C3 10.24 3 19.48 3 29 C2.67 28.34 2.34 27.68 2 27 C1.34 27 0.68 27 0 27 C-4.59225513 17.77448747 -4.59225513 17.77448747 -4 12 C-3.34 12 -2.68 12 -2 12 C-1.34 9.03 -0.68 6.06 0 3 C-0.66 2.67 -1.32 2.34 -2 2 C-1.34 1.34 -0.68 0.68 0 0 Z " fill="#F0CB3B" transform="translate(103,146)"/>
<path d="M0 0 C1.49249268 0.01571045 1.49249268 0.01571045 3.01513672 0.03173828 C4.6296875 0.04140625 4.6296875 0.04140625 6.27685547 0.05126953 C7.40478516 0.06802734 8.53271484 0.08478516 9.69482422 0.10205078 C11.39832031 0.11558594 11.39832031 0.11558594 13.13623047 0.12939453 C15.94763721 0.1530198 18.7586272 0.18596065 21.56982422 0.22705078 C21.56982422 0.55705078 21.56982422 0.88705078 21.56982422 1.22705078 C13.97982422 1.22705078 6.38982422 1.22705078 -1.43017578 1.22705078 C-1.43017578 1.88705078 -1.43017578 2.54705078 -1.43017578 3.22705078 C2.62290755 4.33494613 6.64093796 4.56436345 10.81982422 4.78955078 C11.56490234 4.83273438 12.30998047 4.87591797 13.07763672 4.92041016 C14.90817322 5.02601803 16.73897598 5.1269928 18.56982422 5.22705078 C18.56982422 5.55705078 18.56982422 5.88705078 18.56982422 6.22705078 C13.61982422 6.22705078 8.66982422 6.22705078 3.56982422 6.22705078 C3.23982422 7.54705078 2.90982422 8.86705078 2.56982422 10.22705078 C2.56982422 8.90705078 2.56982422 7.58705078 2.56982422 6.22705078 C1.24982422 5.89705078 -0.07017578 5.56705078 -1.43017578 5.22705078 C-1.76017578 15.78705078 -2.09017578 26.34705078 -2.43017578 37.22705078 C-3.09017578 37.22705078 -3.75017578 37.22705078 -4.43017578 37.22705078 C-4.47954088 32.27914901 -4.51587847 27.33138995 -4.54003906 22.38330078 C-4.55010895 20.69935612 -4.56376566 19.01542899 -4.58105469 17.33154297 C-4.60526004 14.91385578 -4.61664875 12.49639935 -4.62548828 10.07861328 C-4.63581085 9.32335358 -4.64613342 8.56809387 -4.6567688 7.78994751 C-4.65716896 5.93411098 -4.55240294 4.07885798 -4.43017578 2.22705078 C-2.43017578 0.22705078 -2.43017578 0.22705078 0 0 Z " fill="#F6D964" transform="translate(32.43017578125,139.77294921875)"/>
<path d="M0 0 C-0.33 1.32 -0.66 2.64 -1 4 C-1.99 3.67 -2.98 3.34 -4 3 C-4 8.61 -4 14.22 -4 20 C-5.98 20 -7.96 20 -10 20 C-10 14.06 -10 8.12 -10 2 C-5.7900275 0.316011 -4.21047434 -0.24059853 0 0 Z " fill="#353535" transform="translate(63,117)"/>
<path d="M0 0 C5.61 0 11.22 0 17 0 C17 1.98 17 3.96 17 6 C15.35 6 13.7 6 12 6 C12 7.32 12 8.64 12 10 C10.02 10 8.04 10 6 10 C6 8.68 6 7.36 6 6 C4.02 6 2.04 6 0 6 C0 4.02 0 2.04 0 0 Z " fill="#09070B" transform="translate(125,99)"/>
<path d="M0 0 C2.67001167 1.21364167 4.20387466 2.68059781 6.0625 4.9375 C6.0625 5.9275 6.0625 6.9175 6.0625 7.9375 C6.7225 7.9375 7.3825 7.9375 8.0625 7.9375 C7.7325 9.2575 7.4025 10.5775 7.0625 11.9375 C6.4025 11.9375 5.7425 11.9375 5.0625 11.9375 C5.3925 13.2575 5.7225 14.5775 6.0625 15.9375 C5.4025 15.9375 4.7425 15.9375 4.0625 15.9375 C4.0625 14.6175 4.0625 13.2975 4.0625 11.9375 C3.4025 11.9375 2.7425 11.9375 2.0625 11.9375 C2.0625 10.9475 2.0625 9.9575 2.0625 8.9375 C1.44375 9.1025 0.825 9.2675 0.1875 9.4375 C-1.9375 9.9375 -1.9375 9.9375 -3.9375 9.9375 C-3.9375 11.2575 -3.9375 12.5775 -3.9375 13.9375 C-4.5975 13.9375 -5.2575 13.9375 -5.9375 13.9375 C-7.32688077 11.97602126 -8.6635411 9.97583424 -9.9375 7.9375 C-8.9475 7.6075 -7.9575 7.2775 -6.9375 6.9375 C-6.23598848 5.6221659 -5.57224075 4.28632408 -4.9375 2.9375 C-2.64434039 -0.0853013 -2.64434039 -0.0853013 0 0 Z " fill="#404041" transform="translate(99.9375,18.0625)"/>
<path d="M0 0 C10.56 0 21.12 0 32 0 C31.34 0.66 30.68 1.32 30 2 C30.33 2.66 30.66 3.32 31 4 C28.69 4 26.38 4 24 4 C24 4.66 24 5.32 24 6 C23.505 5.84402344 23.01 5.68804687 22.5 5.52734375 C18.34045551 4.64993983 14.08280331 4.63985049 9.84375 4.48242188 C6.11416783 4.29803022 3.18130607 4.04630885 0 2 C0 1.34 0 0.68 0 0 Z " fill="#FBD135" transform="translate(31,141)"/>
<path d="M0 0 C2.91739927 2.91739927 3.62414707 6.1225963 5 10 C5.99 7.03 6.98 4.06 8 1 C8.33 1 8.66 1 9 1 C9 5.95 9 10.9 9 16 C11.31 16 13.62 16 16 16 C16 16.33 16 16.66 16 17 C8.41 17 0.82 17 -7 17 C-7 16.67 -7 16.34 -7 16 C-4.69 16 -2.38 16 0 16 C0 10.72 0 5.44 0 0 Z " fill="#E6E6E6" transform="translate(60,122)"/>
<path d="M0 0 C2.91236421 2.42697017 3.92603719 3.66100378 4.75 7.4375 C6.32942808 11.93887002 8.22828768 12.82364465 12.3203125 14.95703125 C12.87460937 15.30121094 13.42890625 15.64539063 14 16 C14 16.66 14 17.32 14 18 C6.0257123 19.59833218 6.0257123 19.59833218 2 17.25 C-0.9699731 13.90878026 -1.1376926 11.24663847 -1.125 6.9375 C-1.12757812 6.05964844 -1.13015625 5.18179688 -1.1328125 4.27734375 C-1 2 -1 2 0 0 Z " fill="#141315" transform="translate(33,102)"/>
<path d="M0 0 C2.97 0.495 2.97 0.495 6 1 C6.31944345 4.51387796 6.43883512 6.37550387 4.375 9.3125 C1.56041967 11.31233339 -0.59319587 11.69029053 -4 12 C-4.33 11.01 -4.66 10.02 -5 9 C-5.66 8.690625 -6.32 8.38125 -7 8.0625 C-9 7 -9 7 -9.875 5 C-9.91625 4.34 -9.9575 3.68 -10 3 C-9.34 2.34 -8.68 1.68 -8 1 C-6 1.125 -6 1.125 -4 2 C-2.75 4.0625 -2.75 4.0625 -2 6 C-1.34 6 -0.68 6 0 6 C-0.185625 5.38125 -0.37125 4.7625 -0.5625 4.125 C-1 2 -1 2 0 0 Z " fill="#414142" transform="translate(96,26)"/>
<path d="M0 0 C1.65 0.33 3.3 0.66 5 1 C5 4.63 5 8.26 5 12 C2.03 12 -0.94 12 -4 12 C-4 16.29 -4 20.58 -4 25 C-4.99 25 -5.98 25 -7 25 C-7 18.07 -7 11.14 -7 4 C-6.01 4 -5.02 4 -4 4 C-4 5.98 -4 7.96 -4 10 C-2.02 9.67 -0.04 9.34 2 9 C1.51515724 4.35413108 1.51515724 4.35413108 0 0 Z " fill="#C3A939" transform="translate(79,146)"/>
<path d="M0 0 C4.95 0 9.9 0 15 0 C15 1.65 15 3.3 15 5 C13.68 5 12.36 5 11 5 C11 13.25 11 21.5 11 30 C9.35 30 7.7 30 6 30 C7.32 29.67 8.64 29.34 10 29 C9.99476318 28.22285645 9.98952637 27.44571289 9.98413086 26.64501953 C9.96339844 23.13835451 9.95035179 19.63170237 9.9375 16.125 C9.92912109 14.90167969 9.92074219 13.67835938 9.91210938 12.41796875 C9.90727539 10.66806641 9.90727539 10.66806641 9.90234375 8.8828125 C9.89710693 7.80402832 9.89187012 6.72524414 9.88647461 5.61376953 C10 3 10 3 11 1 C9.35 1 7.7 1 6 1 C6.33 2.32 6.66 3.64 7 5 C6.34 5 5.68 5 5 5 C5 12.92 5 20.84 5 29 C4.67 29 4.34 29 4 29 C4 21.08 4 13.16 4 5 C2.68 5 1.36 5 0 5 C0 3.35 0 1.7 0 0 Z " fill="#EBE6C7" transform="translate(123,146)"/>
<path d="M0 0 C0.66 0.33 1.32 0.66 2 1 C-2.58438023 5.69411273 -7.2592218 10.18731358 -12.2421875 14.45703125 C-13.67962714 15.71878383 -15.04022497 17.06759931 -16.375 18.4375 C-18 20 -18 20 -20 20 C-19.525625 20.763125 -19.05125 21.52625 -18.5625 22.3125 C-17 25 -17 25 -16 28 C-19.65039407 26.49544569 -21.67518099 24.39668947 -24.25 21.4375 C-25.02730469 20.54933594 -25.80460937 19.66117188 -26.60546875 18.74609375 C-27.39566406 17.83988281 -28.18585938 16.93367188 -29 16 C-29.77988281 15.14535156 -30.55976562 14.29070313 -31.36328125 13.41015625 C-32.08902344 12.61480469 -32.81476563 11.81945312 -33.5625 11 C-34.22378906 10.278125 -34.88507813 9.55625 -35.56640625 8.8125 C-37 7 -37 7 -37 5 C-33.64065168 6.43124553 -31.68207173 8.17728304 -29.3125 10.9375 C-28.40951172 11.97197266 -28.40951172 11.97197266 -27.48828125 13.02734375 C-26 15 -26 15 -25 18 C-24.34 18 -23.68 18 -23 18 C-23 18.66 -23 19.32 -23 20 C-21.576875 18.7625 -21.576875 18.7625 -20.125 17.5 C-17.25 15 -17.25 15 -15 15 C-15 14.34 -15 13.68 -15 13 C-13.30096977 11.48259024 -11.53927277 10.034872 -9.75 8.625 C-6.30145932 5.89718607 -3.04493931 3.17543671 0 0 Z " fill="#EFDD7E" transform="translate(115,32)"/>
<path d="M0 0 C0.33 0.66 0.66 1.32 1 2 C1.66 2 2.32 2 3 2 C3.33 1.34 3.66 0.68 4 0 C5.32 1.98 6.64 3.96 8 6 C8.598125 5.67 9.19625 5.34 9.8125 5 C12 4 12 4 15 4 C11.65909091 11.15909091 11.65909091 11.15909091 9 13 C6.3125 13.1875 6.3125 13.1875 4 13 C3.67 12.01 3.34 11.02 3 10 C3.33 9.34 3.66 8.68 4 8 C2.68 8.33 1.36 8.66 0 9 C0.33 7.68 0.66 6.36 1 5 C-0.32 5.33 -1.64 5.66 -3 6 C-2.42655063 3.13275314 -2.1385485 2.1385485 0 0 Z " fill="#1D1817" transform="translate(75,69)"/>
<path d="M0 0 C0.78246094 -0.01417969 1.56492187 -0.02835938 2.37109375 -0.04296875 C4.5625 0.1875 4.5625 0.1875 7.5625 2.1875 C7.75 5.8125 7.75 5.8125 7.5625 9.1875 C5.5825 9.5175 3.6025 9.8475 1.5625 10.1875 C1.5625 8.2075 1.5625 6.2275 1.5625 4.1875 C0.5725 4.1875 -0.4175 4.1875 -1.4375 4.1875 C-1.4375 11.1175 -1.4375 18.0475 -1.4375 25.1875 C-1.7675 25.1875 -2.0975 25.1875 -2.4375 25.1875 C-2.4375 17.5975 -2.4375 10.0075 -2.4375 2.1875 C-3.0975 2.1875 -3.7575 2.1875 -4.4375 2.1875 C-4.7675 3.1775 -5.0975 4.1675 -5.4375 5.1875 C-5.7675 3.8675 -6.0975 2.5475 -6.4375 1.1875 C-4.0978331 0.01766655 -2.60358473 0.0213759 0 0 Z " fill="#F4F1E1" transform="translate(73.4375,145.8125)"/>
<path d="M0 0 C0.66 0 1.32 0 2 0 C2 6.93 2 13.86 2 21 C2.66 21.33 3.32 21.66 4 22 C3.67 22.66 3.34 23.32 3 24 C3.66 24.33 4.32 24.66 5 25 C2.03 25 -0.94 25 -4 25 C-3.34 24.67 -2.68 24.34 -2 24 C-2.57452746 20.06924356 -2.57452746 20.06924356 -5 17 C-4.01 16.67 -3.02 16.34 -2 16 C-2 16.66 -2 17.32 -2 18 C-1.34 18 -0.68 18 0 18 C0 14.37 0 10.74 0 7 C-0.66 7 -1.32 7 -2 7 C-2 5.35 -2 3.7 -2 2 C-1.34 2 -0.68 2 0 2 C0 1.34 0 0.68 0 0 Z " fill="#F6D138" transform="translate(125,154)"/>
<path d="M0 0 C0.99 0.33 1.98 0.66 3 1 C3 2.65 3 4.3 3 6 C0.39048764 7.30475618 -1.52701285 7.11301572 -4.4453125 7.09765625 C-6.05986328 7.09282227 -6.05986328 7.09282227 -7.70703125 7.08789062 C-8.83496094 7.07951172 -9.96289062 7.07113281 -11.125 7.0625 C-12.26066406 7.05798828 -13.39632812 7.05347656 -14.56640625 7.04882812 C-17.37765638 7.03701615 -20.1888023 7.02054507 -23 7 C-22.67 6.34 -22.34 5.68 -22 5 C-19.69 5.33 -17.38 5.66 -15 6 C-15 5.01 -15 4.02 -15 3 C-10.05 3 -5.1 3 0 3 C0 2.01 0 1.02 0 0 Z " fill="#D8B841" transform="translate(120,172)"/>
<path d="M0 0 C0.99 0 1.98 0 3 0 C3.05391993 1.79133978 3.09275571 3.58313899 3.125 5.375 C3.14820312 6.37273437 3.17140625 7.37046875 3.1953125 8.3984375 C3 11 3 11 1 13 C-2.0390625 13.1953125 -2.0390625 13.1953125 -5.625 13.125 C-6.81351562 13.10695312 -8.00203125 13.08890625 -9.2265625 13.0703125 C-10.14179687 13.04710937 -11.05703125 13.02390625 -12 13 C-12.33 12.01 -12.66 11.02 -13 10 C-12.38511719 9.95101562 -11.77023438 9.90203125 -11.13671875 9.8515625 C-10.32847656 9.77679688 -9.52023438 9.70203125 -8.6875 9.625 C-7.88699219 9.55539063 -7.08648437 9.48578125 -6.26171875 9.4140625 C-3.72775559 9.10435574 -3.72775559 9.10435574 -1 7 C-0.26393501 3.43230448 -0.26393501 3.43230448 0 0 Z " fill="#D2B234" transform="translate(81,166)"/>
<path d="M0 0 C1.4540625 0.0309375 1.4540625 0.0309375 2.9375 0.0625 C2.9375 2.7025 2.9375 5.3425 2.9375 8.0625 C3.9275 8.3925 4.9175 8.7225 5.9375 9.0625 C5.9375 10.0525 5.9375 11.0425 5.9375 12.0625 C1.9090651 12.24561068 -0.54625245 12.00408017 -4.0625 10.0625 C-4.08939216 8.58343108 -4.10884621 7.10422517 -4.125 5.625 C-4.13660156 4.80128906 -4.14820312 3.97757812 -4.16015625 3.12890625 C-4.00103255 -0.23815127 -3.43619093 0.07012635 0 0 Z " fill="#3C3C3C" transform="translate(34.0625,123.9375)"/>
<path d="M0 0 C1.32 0.66 2.64 1.32 4 2 C3.25 4.4375 3.25 4.4375 2 7 C0.66923011 7.34342449 -0.66431979 7.67619874 -2 8 C-2.474375 8.825 -2.94875 9.65 -3.4375 10.5 C-5 13 -5 13 -7.6875 13.8125 C-8.450625 13.874375 -9.21375 13.93625 -10 14 C-10.33 12.68 -10.66 11.36 -11 10 C-6.25 7 -6.25 7 -4 7 C-3.71125 6.401875 -3.4225 5.80375 -3.125 5.1875 C-2 3 -2 3 0 0 Z " fill="#D2D4D5" transform="translate(118,34)"/>
<path d="M0 0 C0.33 1.32 0.66 2.64 1 4 C-0.32 4.33 -1.64 4.66 -3 5 C-2.99476318 5.69150146 -2.98952637 6.38300293 -2.98413086 7.09545898 C-2.963425 10.20946352 -2.95036037 13.32345361 -2.9375 16.4375 C-2.92912109 17.52611328 -2.92074219 18.61472656 -2.91210938 19.73632812 C-2.90888672 20.77080078 -2.90566406 21.80527344 -2.90234375 22.87109375 C-2.89710693 23.82943115 -2.89187012 24.78776855 -2.88647461 25.77514648 C-3 28 -3 28 -4 29 C-5.99958364 29.04080783 -8.00045254 29.04254356 -10 29 C-10 28.67 -10 28.34 -10 28 C-8.35 28 -6.7 28 -5 28 C-5 19.75 -5 11.5 -5 3 C-3.68 2.67 -2.36 2.34 -1 2 C-0.67 1.34 -0.34 0.68 0 0 Z " fill="#9D8421" transform="translate(139,148)"/>
<path d="M0 0 C0.66 0 1.32 0 2 0 C2.33 1.32 2.66 2.64 3 4 C4.32 4.33 5.64 4.66 7 5 C7 5.99 7 6.98 7 8 C4.36 8 1.72 8 -1 8 C-1 8.66 -1 9.32 -1 10 C-2.98 10 -4.96 10 -7 10 C-7 8.35 -7 6.7 -7 5 C-5.02 4.67 -3.04 4.34 -1 4 C-0.67 2.68 -0.34 1.36 0 0 Z " fill="#D3B231" transform="translate(120,146)"/>
<path d="M0 0 C0 1.32 0 2.64 0 4 C0.99 4 1.98 4 3 4 C2.67 5.32 2.34 6.64 2 8 C2.70125 7.505 3.4025 7.01 4.125 6.5 C7.47321887 4.7531032 9.2758163 4.44533434 13 5 C15.375 6.6875 15.375 6.6875 17 9 C17.25 11.75 17.25 11.75 17 14 C16.773125 13.4225 16.54625 12.845 16.3125 12.25 C14.66961977 9.4336339 12.60466773 7.91922886 10 6 C10.33 6.99 10.66 7.98 11 9 C10.67 9.66 10.34 10.32 10 11 C4.69603334 10.73914918 4.69603334 10.73914918 2 10 C-0.42049032 7.12566775 -1 5.75818619 -1 2 C-1.99 1.67 -2.98 1.34 -4 1 C-2 0 -2 0 0 0 Z " fill="#E2C74B" transform="translate(59,55)"/>
<path d="M0 0 C0.33 0.99 0.66 1.98 1 3 C-0.32 3.33 -1.64 3.66 -3 4 C-2.99476318 4.72179443 -2.98952637 5.44358887 -2.98413086 6.18725586 C-2.96342642 9.43732849 -2.95036082 12.68738728 -2.9375 15.9375 C-2.92912109 17.07380859 -2.92074219 18.21011719 -2.91210938 19.38085938 C-2.90888672 20.46044922 -2.90566406 21.54003906 -2.90234375 22.65234375 C-2.89710693 23.65257568 -2.89187012 24.65280762 -2.88647461 25.68334961 C-3 28 -3 28 -4 29 C-5.66617115 29.04063832 -7.33388095 29.042721 -9 29 C-8.01 28.34 -7.02 27.68 -6 27 C-5.49039309 24.48614741 -5.49039309 24.48614741 -5.48828125 21.5546875 C-5.43510742 19.94013672 -5.43510742 19.94013672 -5.38085938 18.29296875 C-5.35830078 17.16503906 -5.33574219 16.03710938 -5.3125 14.875 C-5.27833984 13.73933594 -5.24417969 12.60367188 -5.20898438 11.43359375 C-5.12630498 8.62249421 -5.05722063 5.81171447 -5 3 C-4.360625 2.87625 -3.72125 2.7525 -3.0625 2.625 C-2.0415625 2.315625 -2.0415625 2.315625 -1 2 C-0.67 1.34 -0.34 0.68 0 0 Z " fill="#9E8724" transform="translate(52,148)"/>
<path d="M0 0 C6.625 0.75 6.625 0.75 10 3 C10.1875 5.625 10.1875 5.625 10 8 C8.02 8.33 6.04 8.66 4 9 C3.67 7.68 3.34 6.36 3 5 C1.68 4.67 0.36 4.34 -1 4 C-0.67 2.68 -0.34 1.36 0 0 Z " fill="#0B0A0D" transform="translate(37,100)"/>
<path d="M0 0 C2.97 0 5.94 0 9 0 C9 2.64 9 5.28 9 8 C8.01 8 7.02 8 6 8 C6 7.34 6 6.68 6 6 C4.02 6 2.04 6 0 6 C0 4.02 0 2.04 0 0 Z " fill="#F0CA36" transform="translate(75,158)"/>
<path d="M0 0 C0.99 0.33 1.98 0.66 3 1 C3.1875 3.875 3.1875 3.875 3 7 C2.01 7.66 1.02 8.32 0 9 C-0.49211854 11.30192799 -0.49211854 11.30192799 -0.4765625 13.97265625 C-0.5075 14.95427734 -0.5384375 15.93589844 -0.5703125 16.94726562 C-0.58835937 17.97529297 -0.60640625 19.00332031 -0.625 20.0625 C-0.67578459 22.09515334 -0.73026747 24.12771884 -0.7890625 26.16015625 C-0.80662598 27.06386963 -0.82418945 27.96758301 -0.84228516 28.89868164 C-1 31 -1 31 -2 32 C-4.33297433 32.04092937 -6.66705225 32.04241723 -9 32 C-9 31.34 -9 30.68 -9 30 C-9.66 29.67 -10.32 29.34 -11 29 C-5.25 28.875 -5.25 28.875 -3 30 C-2.98541748 29.28344238 -2.97083496 28.56688477 -2.95581055 27.82861328 C-2.88151 24.59352017 -2.78479139 21.35947981 -2.6875 18.125 C-2.66494141 16.99707031 -2.64238281 15.86914062 -2.61914062 14.70703125 C-2.58369141 13.63066406 -2.54824219 12.55429688 -2.51171875 11.4453125 C-2.48553467 10.45031738 -2.45935059 9.45532227 -2.43237305 8.43017578 C-2.28968994 7.62821777 -2.14700684 6.82625977 -2 6 C-1.01 5.34 -0.02 4.68 1 4 C0.67 2.68 0.34 1.36 0 0 Z " fill="#D0B13F" transform="translate(51,146)"/>
<path d="M0 0 C3.63 0 7.26 0 11 0 C11 0.66 11 1.32 11 2 C9.35 2 7.7 2 6 2 C5.8453125 2.804375 5.8453125 2.804375 5.6875 3.625 C4.81907303 6.62502044 3.44379704 9.2379535 2 12 C1.67 12 1.34 12 1 12 C1 9.03 1 6.06 1 3 C-0.98 3 -2.96 3 -5 3 C-5 2.67 -5 2.34 -5 2 C-3.35 2 -1.7 2 0 2 C0 1.34 0 0.68 0 0 Z " fill="#E6C33A" transform="translate(90,142)"/>
<path d="M0 0 C1.65 0 3.3 0 5 0 C5.75718206 2.72585542 6.20539321 4.41805258 5.25 7.125 C3.99568492 9.00647262 2.67030438 10.48154147 1 12 C0.01 11.67 -0.98 11.34 -2 11 C-1.34 10.01 -0.68 9.02 0 8 C-0.80404463 4.8371515 -0.80404463 4.8371515 -2 2 C-1.34 2 -0.68 2 0 2 C0 1.34 0 0.68 0 0 Z " fill="#E4E4E5" transform="translate(89,60)"/>
<path d="M0 0 C2 1 2 1 2.8515625 3.50390625 C3.10679688 4.51324219 3.36203125 5.52257812 3.625 6.5625 C3.88539062 7.57441406 4.14578125 8.58632812 4.4140625 9.62890625 C4.60742188 10.41136719 4.80078125 11.19382813 5 12 C7.31 12.33 9.62 12.66 12 13 C12 13.33 12 13.66 12 14 C5.73 14 -0.54 14 -7 14 C-7 13.67 -7 13.34 -7 13 C-4.69 13 -2.38 13 0 13 C0 8.71 0 4.42 0 0 Z " fill="#E3E3E3" transform="translate(111,125)"/>
<path d="M0 0 C3.12270126 2.51830747 3.94523098 3.7261549 4.75 7.75 C4.8325 8.8225 4.915 9.895 5 11 C4.01 11.33 3.02 11.66 2 12 C2.99 13.485 2.99 13.485 4 15 C2.68 15 1.36 15 0 15 C-0.98783094 12.03650719 -1.13410525 10.0287337 -1.125 6.9375 C-1.12757812 6.05964844 -1.13015625 5.18179688 -1.1328125 4.27734375 C-1 2 -1 2 0 0 Z " fill="#0A090D" transform="translate(33,102)"/>
<path d="M0 0 C0.99 0.66 1.98 1.32 3 2 C3.1875 5.125 3.1875 5.125 3 8 C1.35 8 -0.3 8 -2 8 C-2 9.65 -2 11.3 -2 13 C-3.32 13 -4.64 13 -6 13 C-6 10.36 -6 7.72 -6 5 C-4.02 5 -2.04 5 0 5 C0 3.35 0 1.7 0 0 Z " fill="#AD9126" transform="translate(119,157)"/>
<path d="M0 0 C0.66 0.66 1.32 1.32 2 2 C2.66 1.34 3.32 0.68 4 0 C4.66 2.97 5.32 5.94 6 9 C3.69 9 1.38 9 -1 9 C-1.66 6.69 -2.32 4.38 -3 2 C-2.01 1.34 -1.02 0.68 0 0 Z " fill="#424243" transform="translate(117,129)"/>
<path d="M0 0 C4.3322929 -0.4247346 6.34962488 -0.47048413 9.9375 2.125 C12.34355123 5.47888959 12.61420709 6.96378195 12 11 C11.01 12.485 11.01 12.485 10 14 C9.34 14 8.68 14 8 14 C7.67 10.04 7.34 6.08 7 2 C4.36 2 1.72 2 -1 2 C-0.67 1.34 -0.34 0.68 0 0 Z " fill="#121214" transform="translate(68,57)"/>
<path d="M0 0 C1.32 0 2.64 0 4 0 C4 0.66 4 1.32 4 2 C3.34 2 2.68 2 2 2 C2.33 3.32 2.66 4.64 3 6 C-1.455 9.96 -1.455 9.96 -6 14 C-6.99 13.67 -7.98 13.34 -9 13 C-8.43410156 12.39671875 -7.86820312 11.7934375 -7.28515625 11.171875 C-6.18494141 9.97304688 -6.18494141 9.97304688 -5.0625 8.75 C-3.96615234 7.56664062 -3.96615234 7.56664062 -2.84765625 6.359375 C-1.08579457 4.10955586 -0.40223397 2.78371446 0 0 Z " fill="#100E11" transform="translate(131,30)"/>
<path d="M0 0 C2.375 0.8125 2.375 0.8125 3.375 2.8125 C5.73099235 3.28001788 5.73099235 3.28001788 8.4375 3.4375 C9.81615234 3.54964844 9.81615234 3.54964844 11.22265625 3.6640625 C11.93292969 3.71304688 12.64320312 3.76203125 13.375 3.8125 C13.045 4.4725 12.715 5.1325 12.375 5.8125 C11.78332031 5.80089844 11.19164063 5.78929687 10.58203125 5.77734375 C5.52245781 5.6943606 5.52245781 5.6943606 0.5625 6.5625 C-0.5203125 6.68625 -0.5203125 6.68625 -1.625 6.8125 C-3.9375 4.875 -3.9375 4.875 -5.625 2.8125 C-3.74442913 0.33806465 -3.19312156 -0.22808011 0 0 Z " fill="#F8D650" transform="translate(65.625,141.1875)"/>
<path d="M0 0 C1.65 1.32 3.3 2.64 5 4 C4.34 5.32 3.68 6.64 3 8 C2.34 8 1.68 8 1 8 C1 8.66 1 9.32 1 10 C-1.31 10 -3.62 10 -6 10 C-5.2575 9.1028125 -5.2575 9.1028125 -4.5 8.1875 C-2.71723582 6.02970006 -2.71723582 6.02970006 -3 3 C-1.5 1.3125 -1.5 1.3125 0 0 Z " fill="#73757A" transform="translate(108,27)"/>
<path d="M0 0 C1.65 0 3.3 0 5 0 C4.67 1.65 4.34 3.3 4 5 C5.32 4.67 6.64 4.34 8 4 C7.67 5.32 7.34 6.64 7 8 C8.32 7.67 9.64 7.34 11 7 C10.67 7.99 10.34 8.98 10 10 C8.35 9.67 6.7 9.34 5 9 C4.67 10.32 4.34 11.64 4 13 C3.566875 12.236875 3.13375 11.47375 2.6875 10.6875 C1.26313215 8.41906232 -0.03260097 6.7800277 -2 5 C-0.35 5 1.3 5 3 5 C3 4.01 3 3.02 3 2 C2.01 2 1.02 2 0 2 C0 1.34 0 0.68 0 0 Z " fill="#27211D" transform="translate(109,2)"/>
<path d="M0 0 C0.33 0.66 0.66 1.32 1 2 C0.34 2 -0.32 2 -1 2 C-1.33 9.59 -1.66 17.18 -2 25 C-1.34 25 -0.68 25 0 25 C0 24.34 0 23.68 0 23 C0.99 23 1.98 23 3 23 C3 23.99 3 24.98 3 26 C-1.62 26 -6.24 26 -11 26 C-11 25.67 -11 25.34 -11 25 C-7.535 24.505 -7.535 24.505 -4 24 C-3.98541748 23.34402832 -3.97083496 22.68805664 -3.95581055 22.01220703 C-3.88148586 19.04919969 -3.78477631 16.08733883 -3.6875 13.125 C-3.65366211 11.57619141 -3.65366211 11.57619141 -3.61914062 9.99609375 C-3.58369141 9.00996094 -3.54824219 8.02382812 -3.51171875 7.0078125 C-3.48553467 6.09660645 -3.45935059 5.18540039 -3.43237305 4.24658203 C-3.28968994 3.50520996 -3.14700684 2.76383789 -3 2 C-2.01 1.34 -1.02 0.68 0 0 Z " fill="#EFC73E" transform="translate(53,153)"/>
<path d="M0 0 C2.31 0 4.62 0 7 0 C7 0.33 7 0.66 7 1 C5.02 1 3.04 1 1 1 C1 2.65 1 4.3 1 6 C2.98 6 4.96 6 7 6 C7 5.34 7 4.68 7 4 C8.98 4 10.96 4 13 4 C13 4.66 13 5.32 13 6 C12.34 6 11.68 6 11 6 C11 6.99 11 7.98 11 9 C10.01 8.67 9.02 8.34 8 8 C7.67 9.32 7.34 10.64 7 12 C5.02 12 3.04 12 1 12 C1 11.67 1 11.34 1 11 C2.65 11 4.3 11 6 11 C6 9.68 6 8.36 6 7 C4.02 7 2.04 7 0 7 C0 4.69 0 2.38 0 0 Z " fill="#E3CA70" transform="translate(112,150)"/>
<path d="M0 0 C3.05074215 -0.28780586 5.96183742 -0.45787911 9 0 C11.0625 2.5 11.0625 2.5 12 5 C10.02 5.99 10.02 5.99 8 7 C8.33 5.35 8.66 3.7 9 2 C3.31251115 3.25124755 0.27152492 5.04102568 -4 9 C-4 7.68 -4 6.36 -4 5 C-3.01 5 -2.02 5 -1 5 C-1 4.34 -1 3.68 -1 3 C-0.34 3 0.32 3 1 3 C0.67 2.01 0.34 1.02 0 0 Z " fill="#E4CB49" transform="translate(105,0)"/>
<path d="M0 0 C0.66 1.98 1.32 3.96 2 6 C1.01 6.33 0.02 6.66 -1 7 C-1 7.66 -1 8.32 -1 9 C-2.98 8.34 -4.96 7.68 -7 7 C-6.67 5.02 -6.34 3.04 -6 1 C-3.92446352 0.4465236 -2.15634036 0 0 0 Z " fill="#F6D341" transform="translate(79,43)"/>
<path d="M0 0 C0.66 0.33 1.32 0.66 2 1 C1.34 1.556875 0.68 2.11375 0 2.6875 C-2.25492211 4.84062308 -2.25492211 4.84062308 -2.25 7.75 C-2.12625 8.86375 -2.12625 8.86375 -2 10 C-2.33 9.34 -2.66 8.68 -3 8 C-7.70842624 10.11326526 -7.70842624 10.11326526 -11 14 C-11.66 14 -12.32 14 -13 14 C-14.34882408 14.63474075 -15.6846659 15.29848848 -17 16 C-12.36835301 9.63148538 -6.16715622 4.8180908 0 0 Z " fill="#E3E2E2" transform="translate(96,18)"/>
<path d="M0 0 C1.32 0 2.64 0 4 0 C4 2.31 4 4.62 4 7 C6.64 7 9.28 7 12 7 C12 7.33 12 7.66 12 8 C5.73 8 -0.54 8 -7 8 C-7 7.67 -7 7.34 -7 7 C-4.69 7 -2.38 7 0 7 C0 4.69 0 2.38 0 0 Z " fill="#EFEFF0" transform="translate(88,131)"/>
<path d="M0 0 C0.99 0.33 1.98 0.66 3 1 C3.70211894 2.65204456 4.36971413 4.31923769 5 6 C5.66 6.33 6.32 6.66 7 7 C6.01 7.66 5.02 8.32 4 9 C4.33 9.66 4.66 10.32 5 11 C3.68 10.67 2.36 10.34 1 10 C1 9.34 1 8.68 1 8 C0.01 8.33 -0.98 8.66 -2 9 C-2 5.58012972 -1.52745657 3.05491313 0 0 Z " fill="#EAEBEC" transform="translate(88,34)"/>
<path d="M0 0 C2.46800047 1.15173355 4.04783565 2.04783565 6 4 C6.375 6.4375 6.375 6.4375 6 9 C4 10.8125 4 10.8125 2 12 C-1 3 -1 3 0 0 Z " fill="#F8D73A" transform="translate(69,61)"/>
<path d="M0 0 C2.86314093 1.38818954 4.23065505 3.44850168 6.0625 6 C3.4225 6.33 0.7825 6.66 -1.9375 7 C-2.9275 5.68 -3.9175 4.36 -4.9375 3 C-2.5375 0 -2.5375 0 0 0 Z " fill="#838486" transform="translate(99.9375,18)"/>
<path d="M0 0 C0.99 0 1.98 0 3 0 C2.67 6.93 2.34 13.86 2 21 C1.34 21 0.68 21 0 21 C0 14.07 0 7.14 0 0 Z " fill="#9C862F" transform="translate(72,150)"/>
<path d="M0 0 C1.30353538 2.60707075 1.09670911 4.49501781 1.0625 7.41015625 C1.05476563 8.48201172 1.04703125 9.55386719 1.0390625 10.65820312 C1.02617188 11.78162109 1.01328125 12.90503906 1 14.0625 C0.97461401 16.28250469 0.95353919 18.50256435 0.9375 20.72265625 C0.92589844 21.71015869 0.91429688 22.69766113 0.90234375 23.71508789 C0.74053933 25.96596197 0.74053933 25.96596197 2 27 C3.51469448 27.23192865 5.03754562 27.41215238 6.5625 27.5625 C7.38878906 27.64628906 8.21507813 27.73007813 9.06640625 27.81640625 C10.02353516 27.90728516 10.02353516 27.90728516 11 28 C11 28.33 11 28.66 11 29 C7.04 29 3.08 29 -1 29 C-1.02465881 25.03069011 -1.04284023 21.06140966 -1.05493164 17.09204102 C-1.05997057 15.74079614 -1.06680177 14.38955674 -1.07543945 13.03833008 C-1.08752419 11.09979566 -1.09269828 9.161222 -1.09765625 7.22265625 C-1.10289307 6.05484619 -1.10812988 4.88703613 -1.11352539 3.68383789 C-1 1 -1 1 0 0 Z " fill="#E9DC82" transform="translate(66,147)"/>
<path d="M0 0 C1.52519276 0.08937803 3.04681929 0.24537146 4.5625 0.4375 C5.80193359 0.59025391 5.80193359 0.59025391 7.06640625 0.74609375 C7.70449219 0.82988281 8.34257813 0.91367187 9 1 C8.67 2.65 8.34 4.3 8 6 C7.34 6 6.68 6 6 6 C5.67 6.66 5.34 7.32 5 8 C2 6 2 6 1 3 C0.34 2.34 -0.32 1.68 -1 1 C-0.67 0.67 -0.34 0.34 0 0 Z " fill="#F5F6F8" transform="translate(116,28)"/>
<path d="M0 0 C2 0.125 2 0.125 4 1 C5.25 3.0625 5.25 3.0625 6 5 C5.01 5.33 4.02 5.66 3 6 C3 6.66 3 7.32 3 8 C1.0625 7.25 1.0625 7.25 -1 6 C-1.875 4 -1.875 4 -2 2 C-1.34 1.34 -0.68 0.68 0 0 Z " fill="#7B7C7E" transform="translate(88,27)"/>
<path d="M0 0 C0.33 0 0.66 0 1 0 C1 2.97 1 5.94 1 9 C-3.1205746 10.99785435 -6.45194365 11.17835515 -11 11 C-11.33 10.34 -11.66 9.68 -12 9 C-11.38511719 8.93683594 -10.77023438 8.87367188 -10.13671875 8.80859375 C-5.31326161 8.23458689 -5.31326161 8.23458689 -1.734375 5.30859375 C-0.80834447 3.17108649 -0.80834447 3.17108649 0 0 Z " fill="#A28821" transform="translate(82,167)"/>
<path d="M0 0 C0 1.65 0 3.3 0 5 C-0.33 3.68 -0.66 2.36 -1 1 C-2.15757813 1.08378906 -3.31515625 1.16757813 -4.5078125 1.25390625 C-6.04685066 1.35713442 -7.5859146 1.45997869 -9.125 1.5625 C-9.88554688 1.61857422 -10.64609375 1.67464844 -11.4296875 1.73242188 C-15.79993128 2.01498074 -19.68070669 1.93147699 -24 1 C-24 0.67 -24 0.34 -24 0 C-15.92906697 -1.40364053 -8.07093303 -1.40364053 0 0 Z " fill="#F3D96F" transform="translate(120,145)"/>
<path d="M0 0 C0.99 0.33 1.98 0.66 3 1 C2.40075776 5.19469571 1.42500059 9.00999834 0 13 C-0.33 13 -0.66 13 -1 13 C-1.98248524 8.9472484 -2.08159574 5.16138263 -2 1 C-1.34 0.67 -0.68 0.34 0 0 Z " fill="#373737" transform="translate(93,111)"/>
<path d="M0 0 C5.625 -0.25 5.625 -0.25 9 2 C8.67 4.31 8.34 6.62 8 9 C7.6596875 8.0409375 7.6596875 8.0409375 7.3125 7.0625 C6.14749104 4.72806339 6.14749104 4.72806339 3.375 4.25 C2.59125 4.1675 1.8075 4.085 1 4 C0.67 2.68 0.34 1.36 0 0 Z " fill="#F9F8E1" transform="translate(61,65)"/>
<path d="M0 0 C1.44197868 2.88395737 1.58833581 5.82430479 2 9 C4.31 9 6.62 9 9 9 C9 9.66 9 10.32 9 11 C5.75 11.75 5.75 11.75 2 12 C-0.4375 10.4375 -0.4375 10.4375 -2 8 C-2.375 4.875 -2.375 4.875 -2 2 C-1.34 1.34 -0.68 0.68 0 0 Z " fill="#D4BD4E" transform="translate(118,12)"/>
<path d="M0 0 C0.33 0.66 0.66 1.32 1 2 C1.66 2 2.32 2 3 2 C3.33 1.34 3.66 0.68 4 0 C4.66 1.32 5.32 2.64 6 4 C4.68 4 3.36 4 2 4 C2 4.99 2 5.98 2 7 C2.66 7.33 3.32 7.66 4 8 C2.68 8.33 1.36 8.66 0 9 C0.33 7.68 0.66 6.36 1 5 C-0.32 5.33 -1.64 5.66 -3 6 C-2.42655063 3.13275314 -2.1385485 2.1385485 0 0 Z " fill="#322B23" transform="translate(75,69)"/>
<path d="M0 0 C2.61534535 1.7805219 4.97453209 3.5556526 7 6 C6.9375 9.875 6.9375 9.875 6 13 C5.67 12.01 5.34 11.02 5 10 C4.34 10 3.68 10 3 10 C3.33 8.68 3.66 7.36 4 6 C2.68 6.33 1.36 6.66 0 7 C0 4.69 0 2.38 0 0 Z " fill="#EDD45E" transform="translate(116,3)"/>
<path d="M0 0 C1.65 0 3.3 0 5 0 C5 2.31 5 4.62 5 7 C3.35 7 1.7 7 0 7 C0 4.69 0 2.38 0 0 Z " fill="#F6F8F2" transform="translate(76,148)"/>
<path d="M0 0 C2.97 0.495 2.97 0.495 6 1 C6 1.99 6 2.98 6 4 C4.35 4.33 2.7 4.66 1 5 C1.66 5 2.32 5 3 5 C3 5.99 3 6.98 3 8 C1.02 8.33 -0.96 8.66 -3 9 C-2.67 8.01 -2.34 7.02 -2 6 C-1.34 6 -0.68 6 0 6 C-0.185625 5.38125 -0.37125 4.7625 -0.5625 4.125 C-1 2 -1 2 0 0 Z " fill="#9B9C9C" transform="translate(96,26)"/>
<path d="M0 0 C0.66 0.33 1.32 0.66 2 1 C0.02 2.98 -1.96 4.96 -4 7 C-2.68 7.66 -1.36 8.32 0 9 C0 9.66 0 10.32 0 11 C0.99 11.33 1.98 11.66 3 12 C-1.99162787 11.52003578 -3.85035583 11.11223313 -8 8 C-5.36 5.36 -2.72 2.72 0 0 Z " fill="#E5E6DA" transform="translate(72,39)"/>
<path d="M0 0 C0.99 0.33 1.98 0.66 3 1 C1.60249952 4.15835107 -0.05198234 6.32272825 -2.5 8.75 C-3.41265625 9.67039062 -3.41265625 9.67039062 -4.34375 10.609375 C-6 12 -6 12 -8 12 C-6.43909056 8.16867684 -3.8924866 5.8924866 -1 3 C-0.67 2.01 -0.34 1.02 0 0 Z " fill="#F7D23B" transform="translate(139,30)"/>
<path d="M0 0 C0.66 0 1.32 0 2 0 C1.6875 2.875 1.6875 2.875 1 6 C0.01 6.66 -0.98 7.32 -2 8 C-2.72965366 10.56282742 -2.72965366 10.56282742 -3 13 C-3.66 12.34 -4.32 11.68 -5 11 C-4.75082658 6.51487836 -2.68797785 3.5025166 0 0 Z " fill="#99862C" transform="translate(101,149)"/>
<path d="M0 0 C0.99 0 1.98 0 3 0 C3 3.63 3 7.26 3 11 C2.01 11 1.02 11 0 11 C0 7.37 0 3.74 0 0 Z " fill="#EDEDED" transform="translate(111,105)"/>
<path d="M0 0 C3.58677686 1.56921488 3.58677686 1.56921488 5 3.875 C4.94537695 6.63892646 4.49374619 9.13695293 4 11.875 C2.0549 8.95735 1.54723683 7.24962715 1 3.875 C-1.94729537 2.71688612 -1.94729537 2.71688612 -5 2.875 C-2.57142857 -0.16071429 -2.57142857 -0.16071429 0 0 Z " fill="#DCDCDE" transform="translate(108,8.125)"/>
<path d="M0 0 C0.33 0.66 0.66 1.32 1 2 C1.99 2 2.98 2 4 2 C4 2.99 4 3.98 4 5 C3.05125 5.309375 2.1025 5.61875 1.125 5.9375 C-1.86080408 6.87394742 -1.86080408 6.87394742 -4 8 C-4.66 7.34 -5.32 6.68 -6 6 C-4.02 4.02 -2.04 2.04 0 0 Z " fill="#09080B" transform="translate(108,2)"/>
<path d="M0 0 C-0.11362262 1.4800841 -0.24122908 2.95910074 -0.375 4.4375 C-0.44460937 5.26121094 -0.51421875 6.08492187 -0.5859375 6.93359375 C-0.72257812 7.61550781 -0.85921875 8.29742187 -1 9 C-1.99 9.495 -1.99 9.495 -3 10 C-3.66 7.03 -4.32 4.06 -5 1 C-2 0 -2 0 0 0 Z " fill="#3A3A3A" transform="translate(67,123)"/>
<path d="M0 0 C0.66 0.33 1.32 0.66 2 1 C1.82374165 3.37948772 1.30280227 4.70225849 -0.40234375 6.37890625 C-1.90649092 7.62115486 -3.45129851 8.81376056 -5 10 C-5.68359375 8.203125 -5.68359375 8.203125 -6 6 C-4.78515625 4.296875 -4.78515625 4.296875 -3.0625 2.75 C-2.21365234 1.96882813 -2.21365234 1.96882813 -1.34765625 1.171875 C-0.90292969 0.78515625 -0.45820312 0.3984375 0 0 Z " fill="#221F1D" transform="translate(122,41)"/>
<path d="M0 0 C1.32 0.66 2.64 1.32 4 2 C4 3.98 4 5.96 4 8 C2.68 8.33 1.36 8.66 0 9 C-0.33 10.32 -0.66 11.64 -1 13 C-0.67 10.69 -0.34 8.38 0 6 C0.66 6 1.32 6 2 6 C1.34 5.34 0.68 4.68 0 4 C0 2.68 0 1.36 0 0 Z " fill="#DDBA3E" transform="translate(138,146)"/>
<path d="M0 0 C1.65 0 3.3 0 5 0 C5 1.65 5 3.3 5 5 C3.02 5.99 3.02 5.99 1 7 C0 6 0 6 -0.0625 2.9375 C-0.041875 1.968125 -0.02125 0.99875 0 0 Z " fill="#FBFCF8" transform="translate(85,146)"/>
<path d="M0 0 C5.61 0 11.22 0 17 0 C17 0.33 17 0.66 17 1 C12.05 1 7.1 1 2 1 C2 1.99 2 2.98 2 4 C2.99 4.33 3.98 4.66 5 5 C3.35 5.33 1.7 5.66 0 6 C0 4.02 0 2.04 0 0 Z " fill="#121212" transform="translate(125,99)"/>
<path d="M0 0 C-0.33 1.65 -0.66 3.3 -1 5 C0.32 4.67 1.64 4.34 3 4 C3.1875 6.375 3.1875 6.375 3 9 C2.01 9.66 1.02 10.32 0 11 C-0.33 10.01 -0.66 9.02 -1 8 C-0.34 8 0.32 8 1 8 C1 7.34 1 6.68 1 6 C-0.32 6 -1.64 6 -3 6 C-3.33 6.66 -3.66 7.32 -4 8 C-4 7.01 -4 6.02 -4 5 C-3.34 5 -2.68 5 -2 5 C-2 4.01 -2 3.02 -2 2 C-2.66 1.67 -3.32 1.34 -4 1 C-2 0 -2 0 0 0 Z " fill="#27211B" transform="translate(134,24)"/>
<path d="M0 0 C-0.33 1.32 -0.66 2.64 -1 4 C-1.66 4 -2.32 4 -3 4 C-2.67 5.32 -2.34 6.64 -2 8 C-2.66 8 -3.32 8 -4 8 C-4 6.68 -4 5.36 -4 4 C-4.66 4 -5.32 4 -6 4 C-6.33 2.68 -6.66 1.36 -7 0 C-3.98968256 -0.93423645 -3.13349732 -1.04449911 0 0 Z " fill="#4D4D4F" transform="translate(108,26)"/>
<path d="M0 0 C1.67542976 0.28604898 3.34385343 0.61781233 5 1 C5.66 2.98 6.32 4.96 7 7 C4.5625 6.1875 4.5625 6.1875 2 5 C1.67 4.01 1.34 3.02 1 2 C0.34 1.67 -0.32 1.34 -1 1 C-0.67 0.67 -0.34 0.34 0 0 Z " fill="#F4F5F7" transform="translate(63,48)"/>
<path d="M0 0 C0.8125 1.6875 0.8125 1.6875 1 4 C-1.3125 6.75 -1.3125 6.75 -4 9 C-4.66 9 -5.32 9 -6 9 C-6 9.66 -6 10.32 -6 11 C-7.65 10.67 -9.3 10.34 -11 10 C-10.67 9.34 -10.34 8.68 -10 8 C-9.01 8.33 -8.02 8.66 -7 9 C-7 8.34 -7 7.68 -7 7 C-6.34 7 -5.68 7 -5 7 C-5 6.34 -5 5.68 -5 5 C-4.360625 4.731875 -3.72125 4.46375 -3.0625 4.1875 C-0.66868314 3.11332248 -0.66868314 3.11332248 0 0 Z " fill="#EDECDF" transform="translate(106,36)"/>
<path d="M0 0 C0.66 0.33 1.32 0.66 2 1 C-6.261959 9.44646925 -6.261959 9.44646925 -11 13 C-11.66 12.67 -12.32 12.34 -13 12 C-8.71 8.04 -4.42 4.08 0 0 Z " fill="#ECDA6B" transform="translate(115,32)"/>
<path d="M0 0 C-3.49087093 4.0042343 -5.64951939 5.62671065 -11 6 C-7.82056713 0.36373265 -6.43725245 -0.13994027 0 0 Z " fill="#F9FAE9" transform="translate(71,31)"/>
<path d="M0 0 C1.98 0 3.96 0 6 0 C6 2.31 6 4.62 6 7 C5.01 7 4.02 7 3 7 C3 6.34 3 5.68 3 5 C1.02 5 -0.96 5 -3 5 C-3 4.67 -3 4.34 -3 4 C-0.69 4 1.62 4 4 4 C3.04134491 1.66924071 3.04134491 1.66924071 0 0 Z " fill="#F2CF47" transform="translate(78,159)"/>
<path d="M0 0 C0.33 0 0.66 0 1 0 C1.33 4.29 1.66 8.58 2 13 C1.01 13 0.02 13 -1 13 C-1.0272415 11.58344207 -1.04650467 10.16672955 -1.0625 8.75 C-1.07410156 7.96109375 -1.08570312 7.1721875 -1.09765625 6.359375 C-1.00385306 4.09308998 -0.63241063 2.1711105 0 0 Z " fill="#CACACA" transform="translate(90,112)"/>
<path d="M0 0 C0.66 0 1.32 0 2 0 C2 4.62 2 9.24 2 14 C1.01 13.34 0.02 12.68 -1 12 C-1.328125 9.43359375 -1.328125 9.43359375 -1.25 6.4375 C-1.23453125 5.44621094 -1.2190625 4.45492187 -1.203125 3.43359375 C-1 1 -1 1 0 0 Z " fill="#1E1E1F" transform="translate(31,102)"/>
<path d="M0 0 C0.66 0.33 1.32 0.66 2 1 C0.02677065 5.56958375 -1.92236229 8.13463296 -6 11 C-5.17857636 6.56431237 -3.17658845 3.17658845 0 0 Z " fill="#262220" transform="translate(67,39)"/>
<path d="M0 0 C0.5625 1.9375 0.5625 1.9375 1 4 C-0.66561399 5.66561399 -2.65962705 5.17115945 -4.9375 5.1875 C-5.83339844 5.20167969 -6.72929688 5.21585938 -7.65234375 5.23046875 C-10 5 -10 5 -12 3 C-11.21753906 2.95101562 -10.43507813 2.90203125 -9.62890625 2.8515625 C-8.61699219 2.77679688 -7.60507813 2.70203125 -6.5625 2.625 C-5.55316406 2.55539063 -4.54382813 2.48578125 -3.50390625 2.4140625 C-2.26447266 2.20910156 -2.26447266 2.20910156 -1 2 C-0.67 1.34 -0.34 0.68 0 0 Z " fill="#A68C1E" transform="translate(120,173)"/>
<path d="M0 0 C0.66 0 1.32 0 2 0 C1.72510809 4.03174806 1.46508424 5.56894631 -1.5625 8.375 C-2.366875 8.91125 -3.17125 9.4475 -4 10 C-4 7.69 -4 5.38 -4 3 C-3.01 3 -2.02 3 -1 3 C-0.67 2.01 -0.34 1.02 0 0 Z " fill="#4F4F50" transform="translate(89,110)"/>
<path d="M0 0 C0 1.32 0 2.64 0 4 C0.99 4 1.98 4 3 4 C2.67 5.32 2.34 6.64 2 8 C2.99 7.67 3.98 7.34 5 7 C5 7.99 5 8.98 5 10 C3.125 9.75 3.125 9.75 1 9 C-0.72101535 6.41847698 -1 5.15081975 -1 2 C-1.99 1.67 -2.98 1.34 -4 1 C-2 0 -2 0 0 0 Z " fill="#D4BD4A" transform="translate(59,55)"/>
<path d="M0 0 C1.2065625 0.0309375 1.2065625 0.0309375 2.4375 0.0625 C2.4375 2.3725 2.4375 4.6825 2.4375 7.0625 C2.1075 7.0625 1.7775 7.0625 1.4375 7.0625 C1.4375 5.4125 1.4375 3.7625 1.4375 2.0625 C-1.07333114 3.31791557 -1.43375446 4.56313488 -2.5625 7.0625 C-2.8925 7.0625 -3.2225 7.0625 -3.5625 7.0625 C-3.60504356 5.06295254 -3.60330783 3.06208364 -3.5625 1.0625 C-2.5625 0.0625 -2.5625 0.0625 0 0 Z " fill="#303030" transform="translate(118.5625,108.9375)"/>
<path d="M0 0 C0.66 0 1.32 0 2 0 C1.52794881 4.24846075 -0.88877522 6.26819288 -4 9 C-4.66 9 -5.32 9 -6 9 C-4.4722133 5.56247993 -2.49818944 2.81046312 0 0 Z " fill="#0A080C" transform="translate(115,48)"/>
<path d="M0 0 C0.66 0.33 1.32 0.66 2 1 C1.54625 1.7425 1.0925 2.485 0.625 3.25 C-0.68640796 5.46930578 -1.88280803 7.67967822 -3 10 C-3.66 10 -4.32 10 -5 10 C-5.68359375 8.203125 -5.68359375 8.203125 -6 6 C-4.78515625 4.296875 -4.78515625 4.296875 -3.0625 2.75 C-2.21365234 1.96882813 -2.21365234 1.96882813 -1.34765625 1.171875 C-0.90292969 0.78515625 -0.45820312 0.3984375 0 0 Z " fill="#09070A" transform="translate(62,44)"/>
<path d="M0 0 C0.66 0.33 1.32 0.66 2 1 C1.875 2.75 1.875 2.75 1 5 C-2.0625 7.25 -2.0625 7.25 -5 9 C-5 4.61031544 -2.87194899 3.23094261 0 0 Z " fill="#0F0D0F" transform="translate(84,24)"/>
<path d="M0 0 C0.99 0.33 1.98 0.66 3 1 C3.1875 3.875 3.1875 3.875 3 7 C2.01 7.66 1.02 8.32 0 9 C-0.66 9.99 -1.32 10.98 -2 12 C-2.1875 9.125 -2.1875 9.125 -2 6 C-1.01 5.34 -0.02 4.68 1 4 C0.67 2.68 0.34 1.36 0 0 Z " fill="#CAAB3A" transform="translate(51,146)"/>
<path d="M0 0 C0.66 0 1.32 0 2 0 C2.33 1.32 2.66 2.64 3 4 C0.03312999 5.64826111 -2.65626525 6.44271087 -6 7 C-5.04882866 5.8274869 -4.08882991 4.66212985 -3.125 3.5 C-2.59132813 2.8503125 -2.05765625 2.200625 -1.5078125 1.53125 C-0.76144531 0.77328125 -0.76144531 0.77328125 0 0 Z " fill="#E4CB4A" transform="translate(93,72)"/>
<path d="M0 0 C0.99 0 1.98 0 3 0 C3.61875 0.639375 4.2375 1.27875 4.875 1.9375 C7.28839022 4.27990815 8.7163874 4.63515416 12 5 C12 5.33 12 5.66 12 6 C8.8125 6.8125 8.8125 6.8125 5 7 C2.0625 4.6875 2.0625 4.6875 0 2 C0 1.34 0 0.68 0 0 Z " fill="#D1D1D2" transform="translate(61,50)"/>
<path d="M0 0 C-1.75 1.5625 -1.75 1.5625 -4 3 C-6.25 2.6875 -6.25 2.6875 -8 2 C-8 1.01 -8 0.02 -8 -1 C-3.375 -2.25 -3.375 -2.25 0 0 Z " fill="#D9DADB" transform="translate(115,45)"/>
<path d="M0 0 C0.66666667 2.66666667 1.33333333 5.33333333 2 8 C-0.31 8 -2.62 8 -5 8 C-4.505 7.401875 -4.01 6.80375 -3.5 6.1875 C-1.71723582 4.02970006 -1.71723582 4.02970006 -2 1 C-1.34 0.67 -0.68 0.34 0 0 Z " fill="#999A9B" transform="translate(107,29)"/>
<path d="M0 0 C0.66 0 1.32 0 2 0 C2.66 2.64 3.32 5.28 4 8 C2.68 8 1.36 8 0 8 C-0.38063221 5.6739143 -0.71269945 3.33944736 -1 1 C-0.67 0.67 -0.34 0.34 0 0 Z " fill="#FAD531" transform="translate(119,13)"/>
<path d="M0 0 C0.66 0.66 1.32 1.32 2 2 C2.66 1.67 3.32 1.34 4 1 C4 3.31 4 5.62 4 8 C2.68 8 1.36 8 0 8 C0 5.36 0 2.72 0 0 Z " fill="#FBFDFC" transform="translate(86,167)"/>
<path d="M0 0 C0.99 0.33 1.98 0.66 3 1 C2.125 6.75 2.125 6.75 1 9 C0.34 9 -0.32 9 -1 9 C-0.67 7.02 -0.34 5.04 0 3 C-0.66 2.67 -1.32 2.34 -2 2 C-1.34 1.34 -0.68 0.68 0 0 Z " fill="#D6B238" transform="translate(103,146)"/>
<path d="M0 0 C0 3.96 0 7.92 0 12 C-0.66 11.34 -1.32 10.68 -2 10 C-1.625 7.375 -1.625 7.375 -1 5 C-1.99 5.33 -2.98 5.66 -4 6 C-4 3 -4 3 -2.5625 1.3125 C-1 0 -1 0 0 0 Z " fill="#040305" transform="translate(76,103)"/>
<path d="M0 0 C0.33 0 0.66 0 1 0 C1.33 2.97 1.66 5.94 2 9 C-1.99110319 10.9955516 -3.69986566 11.19546065 -8 11 C-8 10.67 -8 10.34 -8 10 C-7.030625 9.690625 -6.06125 9.38125 -5.0625 9.0625 C-2.15934208 8.30476658 -2.15934208 8.30476658 -1 7 C-0.63239269 4.67182036 -0.29758419 2.3381615 0 0 Z " fill="#EDD9D8" transform="translate(159,92)"/>
<path d="M0 0 C0.66 0.33 1.32 0.66 2 1 C-0.625 6.75 -0.625 6.75 -4 9 C-4.33 7.35 -4.66 5.7 -5 4 C-3.35 2.68 -1.7 1.36 0 0 Z " fill="#22201F" transform="translate(88,72)"/>
<path d="M0 0 C1.08854856 2.03195731 1.95725713 3.79849788 2.4375 6.0625 C3.11783322 8.40586999 4.18187959 9.41902573 6 11 C2 11 2 11 0.1875 9.4375 C-1.47275649 6.0296051 -0.76785572 3.62986341 0 0 Z " fill="#E0E0E1" transform="translate(80,64)"/>
<path d="M0 0 C0.66 0.33 1.32 0.66 2 1 C1.6596875 1.86625 1.6596875 1.86625 1.3125 2.75 C0.73494807 5.12172477 0.73494807 5.12172477 2.4375 7.25 C2.953125 7.8275 3.46875 8.405 4 9 C3.01 10.32 2.02 11.64 1 13 C0.01 9.37 -0.98 5.74 -2 2 C-1.34 1.34 -0.68 0.68 0 0 Z " fill="#F4F0E4" transform="translate(78,34)"/>
<path d="M0 0 C0.33 1.32 0.66 2.64 1 4 C-0.65 5.32 -2.3 6.64 -4 8 C-4.33 7.01 -4.66 6.02 -5 5 C-3.35 3.35 -1.7 1.7 0 0 Z " fill="#E9CC41" transform="translate(73,30)"/>
<path d="M0 0 C1.65 0 3.3 0 5 0 C5.33 0.99 5.66 1.98 6 3 C3.29120665 4.35439668 0.99066732 4.06501451 -2 4 C-2 3.34 -2 2.68 -2 2 C-1.34 2 -0.68 2 0 2 C0 1.34 0 0.68 0 0 Z " fill="#D5D6D8" transform="translate(89,60)"/>
<path d="M0 0 C0.6875 1.8125 0.6875 1.8125 1 4 C-0.1875 5.8125 -0.1875 5.8125 -2 7 C-4.1875 6.6875 -4.1875 6.6875 -6 6 C-2.25 1.125 -2.25 1.125 0 0 Z " fill="#F8F9E3" transform="translate(123,50)"/>
<path d="M0 0 C0.66 0 1.32 0 2 0 C2 2 2 4 2 6 C2.66 6 3.32 6 4 6 C4 6.66 4 7.32 4 8 C2.35 8 0.7 8 -1 8 C-1.93065133 5.39417629 -2.14917407 4.35801776 -1.0625 1.75 C-0.711875 1.1725 -0.36125 0.595 0 0 Z " fill="#6B6B6D" transform="translate(102,30)"/>
<path d="M0 0 C0.99 0 1.98 0 3 0 C3 0.99 3 1.98 3 3 C-1.62 3 -6.24 3 -11 3 C-11 2.67 -11 2.34 -11 2 C-9.54263913 1.80508548 -8.08405407 1.61930642 -6.625 1.4375 C-5.81289063 1.33308594 -5.00078125 1.22867188 -4.1640625 1.12109375 C-2 1 -2 1 0 2 C0 1.34 0 0.68 0 0 Z " fill="#F1C62F" transform="translate(53,176)"/>
<path d="M0 0 C1.4540625 0.0309375 1.4540625 0.0309375 2.9375 0.0625 C2.6075 0.7225 2.2775 1.3825 1.9375 2.0625 C0.6175 2.0625 -0.7025 2.0625 -2.0625 2.0625 C-2.3925 4.7025 -2.7225 7.3425 -3.0625 10.0625 C-3.3925 10.0625 -3.7225 10.0625 -4.0625 10.0625 C-4.08939216 8.58343108 -4.10884621 7.10422517 -4.125 5.625 C-4.13660156 4.80128906 -4.14820312 3.97757812 -4.16015625 3.12890625 C-4.00103255 -0.23815127 -3.43619093 0.07012635 0 0 Z " fill="#505050" transform="translate(34.0625,123.9375)"/>
<path d="M0 0 C1.65 0 3.3 0 5 0 C5 0.99 5 1.98 5 3 C5.66 3 6.32 3 7 3 C7 3.66 7 4.32 7 5 C6.34 5 5.68 5 5 5 C5 5.66 5 6.32 5 7 C4.34 7 3.68 7 3 7 C3.33 5.68 3.66 4.36 4 3 C2.68 2.67 1.36 2.34 0 2 C0 1.34 0 0.68 0 0 Z " fill="#525355" transform="translate(94,38)"/>
<path d="M0 0 C-0.3125 1.875 -0.3125 1.875 -1 4 C-1.99 4.66 -2.98 5.32 -4 6 C-4.33 5.34 -4.66 4.68 -5 4 C-5.66 3.67 -6.32 3.34 -7 3 C-3.375 0 -3.375 0 0 0 Z " fill="#F4D956" transform="translate(78,27)"/>
<path d="M0 0 C0.33 0.66 0.66 1.32 1 2 C1.66 2.33 2.32 2.66 3 3 C0.03 5.475 0.03 5.475 -3 8 C-3.36923077 3.44615385 -3.36923077 3.44615385 -1.5 1.1875 C-1.005 0.795625 -0.51 0.40375 0 0 Z " fill="#221F1F" transform="translate(88,20)"/>
<path d="M0 0 C0.66 0.33 1.32 0.66 2 1 C1.34 1.556875 0.68 2.11375 0 2.6875 C-2.25492211 4.84062308 -2.25492211 4.84062308 -2.25 7.75 C-2.1675 8.4925 -2.085 9.235 -2 10 C-2.33 9.34 -2.66 8.68 -3 8 C-3.99 7.67 -4.98 7.34 -6 7 C-5.34 7 -4.68 7 -4 7 C-4.33 6.01 -4.66 5.02 -5 4 C-3.35 2.68 -1.7 1.36 0 0 Z " fill="#D0D0D1" transform="translate(96,18)"/>
<path d="M0 0 C1.98 0 3.96 0 6 0 C6.33 0.66 6.66 1.32 7 2 C6.0625 4.125 6.0625 4.125 5 6 C3.35 4.02 1.7 2.04 0 0 Z " fill="#FBFAED" transform="translate(114,0)"/>
<path d="M0 0 C0.33 1.32 0.66 2.64 1 4 C-0.65 4.33 -2.3 4.66 -4 5 C-4.33 5.99 -4.66 6.98 -5 8 C-5.66 8 -6.32 8 -7 8 C-7 6.35 -7 4.7 -7 3 C-5.5459375 2.814375 -5.5459375 2.814375 -4.0625 2.625 C-2.5465625 2.315625 -2.5465625 2.315625 -1 2 C-0.67 1.34 -0.34 0.68 0 0 Z " fill="#957D1E" transform="translate(120,148)"/>
<path d="M0 0 C0 3 0 3 -1.53125 4.60546875 C-2.1809375 5.12753906 -2.830625 5.64960937 -3.5 6.1875 C-4.1496875 6.71730469 -4.799375 7.24710937 -5.46875 7.79296875 C-5.9740625 8.19128906 -6.479375 8.58960937 -7 9 C-7.66 8.67 -8.32 8.34 -9 8 C-6.03 5.36 -3.06 2.72 0 0 Z " fill="#F8F6D8" transform="translate(98,73)"/>
<path d="M0 0 C-2.31 1.65 -4.62 3.3 -7 5 C-7.33 3.68 -7.66 2.36 -8 1 C-4.59449725 -1.06762667 -4.18836538 -1.04709135 0 0 Z " fill="#F9FAF0" transform="translate(85,19)"/>
<path d="M0 0 C0.66 0 1.32 0 2 0 C2 1.65 2 3.3 2 5 C-0.31 5 -2.62 5 -5 5 C-5 4.34 -5 3.68 -5 3 C-3.35 3 -1.7 3 0 3 C0 2.01 0 1.02 0 0 Z " fill="#B8991F" transform="translate(103,173)"/>
<path d="M0 0 C0.99 1.32 1.98 2.64 3 4 C1.625 5.5 1.625 5.5 0 7 C-0.66 7 -1.32 7 -2 7 C-1.67 5.68 -1.34 4.36 -1 3 C-1.66 2.67 -2.32 2.34 -3 2 C-2.01 2 -1.02 2 0 2 C0 1.34 0 0.68 0 0 Z " fill="#322D1E" transform="translate(63,56)"/>
<path d="M0 0 C0.59732819 2.76264289 1 5.16032769 1 8 C-1.04119788 6.38405168 -3.04072937 4.7143618 -5 3 C-5 2.34 -5 1.68 -5 1 C-2 0 -2 0 0 0 Z " fill="#ECEDEE" transform="translate(111,23)"/>
<path d="M0 0 C0.66 0 1.32 0 2 0 C2.33 0.99 2.66 1.98 3 3 C0.69 4.98 -1.62 6.96 -4 9 C-4 7.68 -4 6.36 -4 5 C-3.01 5 -2.02 5 -1 5 C-1 4.34 -1 3.68 -1 3 C-0.34 3 0.32 3 1 3 C0.67 2.01 0.34 1.02 0 0 Z " fill="#DAC148" transform="translate(105,0)"/>
<path d="M0 0 C0 4.38968456 -2.12805101 5.76905739 -5 9 C-5.99 8.34 -6.98 7.68 -8 7 C-7.34 7 -6.68 7 -6 7 C-6 6.34 -6 5.68 -6 5 C-4.04072937 3.2856382 -2.04119788 1.61594832 0 0 Z " fill="#FCF8E5" transform="translate(132,42)"/>
<path d="M0 0 C0.66 0.99 1.32 1.98 2 3 C-0.97 5.475 -0.97 5.475 -4 8 C-3.40072174 4.64404172 -2.15377564 2.62198774 0 0 Z " fill="#0A090C" transform="translate(71,36)"/>
<path d="M0 0 C1.32 0 2.64 0 4 0 C3.01 2.97 2.02 5.94 1 9 C0.67 9 0.34 9 0 9 C0 6.03 0 3.06 0 0 Z " fill="#04030B" transform="translate(114,11)"/>
<path d="M0 0 C0.99 0 1.98 0 3 0 C1.95125002 2.62187494 1.35068687 3.79371361 -1.125 5.25 C-1.74375 5.4975 -2.3625 5.745 -3 6 C-3.33 5.01 -3.66 4.02 -4 3 C-2.68 3 -1.36 3 0 3 C0 2.01 0 1.02 0 0 Z " fill="#DFC647" transform="translate(92,13)"/>
<path d="M0 0 C1.485 0.99 1.485 0.99 3 2 C5.27912938 2.45394552 5.27912938 2.45394552 7.6875 2.625 C8.49574219 2.69976562 9.30398437 2.77453125 10.13671875 2.8515625 C10.75160156 2.90054688 11.36648437 2.94953125 12 3 C12 3.33 12 3.66 12 4 C8.04 4 4.08 4 0 4 C0 2.68 0 1.36 0 0 Z " fill="#DAC46B" transform="translate(65,172)"/>
<path d="M0 0 C0.66 0.33 1.32 0.66 2 1 C2 1.66 2 2.32 2 3 C3.32 3.33 4.64 3.66 6 4 C3.03 4 0.06 4 -3 4 C-3.33 3.34 -3.66 2.68 -4 2 C-2.68 2 -1.36 2 0 2 C0 1.34 0 0.68 0 0 Z " fill="#C3BDAF" transform="translate(78,84)"/>
<path d="M0 0 C0.125 5.75 0.125 5.75 -1 8 C-1.66 8 -2.32 8 -3 8 C-3 5.69 -3 3.38 -3 1 C-1 0 -1 0 0 0 Z " fill="#020206" transform="translate(79,63)"/>
<path d="M0 0 C1.32 0.66 2.64 1.32 4 2 C1.36 2.99 -1.28 3.98 -4 5 C-4.33 4.01 -4.66 3.02 -5 2 C-3.35 2 -1.7 2 0 2 C0 1.34 0 0.68 0 0 Z " fill="#282829" transform="translate(102,23)"/>
<path d="M0 0 C0.66 1.32 1.32 2.64 2 4 C0.68 4.99 -0.64 5.98 -2 7 C-2.6875 5.1875 -2.6875 5.1875 -3 3 C-1.5625 1.25 -1.5625 1.25 0 0 Z " fill="#F3D54A" transform="translate(87,16)"/>
<path d="M0 0 C1.98 0 3.96 0 6 0 C5.34 0.66 4.68 1.32 4 2 C4.99 2.66 5.98 3.32 7 4 C5.02 4 3.04 4 1 4 C0.67 2.68 0.34 1.36 0 0 Z " fill="#D7BA4E" transform="translate(55,175)"/>
<path d="M0 0 C1.485 0.99 1.485 0.99 3 2 C3.1875 5.125 3.1875 5.125 3 8 C2.01 8 1.02 8 0 8 C0 5.36 0 2.72 0 0 Z " fill="#D7B332" transform="translate(119,157)"/>
<path d="M0 0 C0.66 0.33 1.32 0.66 2 1 C1.2884375 1.61875 1.2884375 1.61875 0.5625 2.25 C-1.16266518 4.182185 -1.56584875 5.48192275 -2 8 C-2.99 7.01 -3.98 6.02 -5 5 C-3.35 3.35 -1.7 1.7 0 0 Z " fill="#272522" transform="translate(111,51)"/>
<path d="M0 0 C-0.33 1.32 -0.66 2.64 -1 4 C-1.66 4 -2.32 4 -3 4 C-3 4.66 -3 5.32 -3 6 C-3.66 6 -4.32 6 -5 6 C-4.625 3.5625 -4.625 3.5625 -4 1 C-2 0 -2 0 0 0 Z " fill="#F7D745" transform="translate(129,43)"/>
<path d="M0 0 C0.66 1.98 1.32 3.96 2 6 C1.01 6.33 0.02 6.66 -1 7 C-1 5.35 -1 3.7 -1 2 C-2.65 2 -4.3 2 -6 2 C-2.25 0 -2.25 0 0 0 Z " fill="#F3DB74" transform="translate(79,43)"/>
<path d="M0 0 C-1.36983503 3.16115776 -1.9890638 3.9927092 -5 6 C-5.33 5.34 -5.66 4.68 -6 4 C-3.33333333 0 -3.33333333 0 0 0 Z " fill="#E0E0E1" transform="translate(128,35)"/>
<path d="M0 0 C1.2065625 0.0309375 1.2065625 0.0309375 2.4375 0.0625 C0.6875 3.9375 0.6875 3.9375 -1.5625 5.0625 C-1.5625 4.0725 -1.5625 3.0825 -1.5625 2.0625 C-2.2225 1.7325 -2.8825 1.4025 -3.5625 1.0625 C-2.5625 0.0625 -2.5625 0.0625 0 0 Z " fill="#DDC54F" transform="translate(79.5625,24.9375)"/>
</svg>
